<?xml version="1.0" encoding="utf-8"?><svg viewBox="0 0 349 422" xmlns="http://www.w3.org/2000/svg" xmlns:xlink="http://www.w3.org/1999/xlink"><style>:root>svg{display:none}:root>svg:target{display:block}</style><svg fill="none" viewBox="0 0 100 35" id="AlfaBank" xmlns="http://www.w3.org/2000/svg"><path d="M11.3 0c2.383 0 3.131 1.684 3.759 3.365.264.714 6.453 17.422 6.64 17.923.049.14.015.37-.203.453-.22.082-3.435 1.314-3.613 1.38a.346.346 0 01-.442-.205c-.067-.173-1.402-3.816-1.552-4.222H6.715c-.144.406-1.495 4.057-1.555 4.222a.341.341 0 01-.444.205l-3.61-1.38a.356.356 0 01-.205-.453c.227-.625 6.323-17.065 6.634-17.923C8.14 1.71 8.914 0 11.3 0zM.41 29.895a.349.349 0 00-.346.352v3.905c0 .192.154.348.347.348h21.77c.197 0 .351-.156.351-.348v-3.905a.35.35 0 00-.35-.352H.41zm10.87-24.44l-3.101 9.18h6.252l-3.111-9.18h-.04zm46.528 15.05a3.21 3.21 0 01-1.116.19c-.742 0-1.153-.29-1.153-1.04 0-.78.522-1.042 1.548-1.042.25 0 .496.036.611.076v.559c0 .603.034 1 .11 1.258zm2.636.896c-.547-.82-.69-1.303-.69-2.336v-2.099c0-1.13-.134-1.537-.437-1.949-.422-.583-1.125-.837-2.416-.837-.915 0-1.803.098-2.662.314l.31 1.492c.581-.08 1.19-.15 1.62-.15 1.373 0 1.53.196 1.53 1.21v.38a4.037 4.037 0 00-1.046-.139c-2.066 0-3.157.996-3.157 2.646 0 1.547 1.166 2.39 2.586 2.39.53 0 1.085-.096 1.524-.273.265-.114.38-.181.723-.4.206.296.62.598.789.655l1.326-.904zm20.435-.895a3.21 3.21 0 01-1.117.189c-.744 0-1.16-.29-1.16-1.04 0-.78.529-1.042 1.557-1.042.25 0 .498.036.61.076v.559c0 .603.032 1 .11 1.258zm2.639.895c-.552-.82-.692-1.303-.692-2.336v-2.099c0-1.13-.137-1.537-.442-1.949-.416-.583-1.12-.837-2.417-.837-.913 0-1.806.098-2.665.314l.306 1.492c.583-.08 1.193-.15 1.635-.15 1.364 0 1.526.196 1.526 1.21v.38a4.032 4.032 0 00-1.05-.139c-2.07 0-3.164.996-3.164 2.646 0 1.547 1.168 2.39 2.596 2.39.537 0 1.086-.096 1.52-.273.27-.114.38-.181.724-.4.208.296.622.598.792.655l1.331-.904zm16.085.747s-1.133-2.38-1.41-2.921c-.312-.61-.601-1.03-1.238-1.183v-.034c.427-.08.767-.335 1.139-1.114.352-.759.457-.922.664-1.103.204-.18.482-.115.482-.115l.104-1.403a5.245 5.245 0 00-.962-.022c-.563.033-.853.193-1.13.467-.217.21-.364.524-.546.884-.193.394-.346.71-.547 1.11-.2.41-.293.595-.83.595h-.35v-6.214h-2.068v11.053h2.069V18.97l.282-.006c.593 0 .698.147 1.011.763.367.735 1.07 2.42 1.07 2.42h2.26zm-58.272 0h2.387l-3.61-10.868a4.4 4.4 0 00-1.353-.204c-.547 0-.743.072-1.171.204l-3.821 10.868h2.29s.31-.953.674-2.134h3.957c.354 1.18.647 2.134.647 2.134zm-4.023-3.957l.764-2.52c.263-.88.662-2.276.662-2.276h.065s.37 1.447.61 2.26l.724 2.536h-2.825zm26.66-1.243c-.73 0-1.323.587-1.323 1.306 0 .725.593 1.308 1.323 1.308.731 0 1.322-.583 1.322-1.308 0-.719-.59-1.306-1.322-1.306zm-17.415-5.853h-2.074v11.051h2.074V11.095zm41.202 4.842c1.146.024 1.288.257 1.288 1.205v5.006h2.055v-5.182c0-1.13-.133-1.537-.439-1.949-.421-.583-1.25-.837-2.652-.837-1.387 0-2.27.146-3.407.48v7.488h2.076v-6.116c.545-.078.642-.095 1.08-.095zm-36.073-5.039c-1.296 0-2.002.254-2.417.836-.305.413-.44.83-.44 1.962v.963h-1.03v1.653h1.03v5.835h2.056l-.005-5.835h2.05v-1.653h-2.05l.005-.885c0-1.014.157-1.21 1.53-1.21.149 0 .316.008.494.02l.324-1.587a12.03 12.03 0 00-1.547-.099zm16.5.103c.705-.04 2.282-.099 3.272-.099.18 0 .368.002.555.01 1.946 0 3.06 1.397 3.06 3.036 0 1.115-.517 1.856-1.732 2.296 1.429.312 2.177 1.411 2.177 2.756 0 .987-.282 1.771-.8 2.305-.672.652-1.69 1.018-3.045 1.018-1.205 0-2.718-.037-3.487-.082v-11.24zm3.272 1.81c-.343 0-.767.007-1.188.022v2.654h1.189c.471 0 .85-.13 1.109-.379.246-.235.374-.567.374-.962 0-.849-.466-1.329-1.332-1.334h-.152zm.043 7.606h.09c1.08 0 1.741-.566 1.75-1.706-.012-.41-.171-.787-.456-1.06-.312-.309-.754-.47-1.272-.47h-1.343v3.224c.379.008.797.01 1.23.012z" fill="#EE2A23"/></svg><svg fill="none" viewBox="0 0 94 34" id="Qiwi" xmlns="http://www.w3.org/2000/svg"><path d="M62.47 7.17v15.9c0 .238-.193.43-.435.43h-3.281a.432.432 0 01-.436-.43V7.17c0-.238.194-.43.436-.43h3.281c.242 0 .436.192.436.43zm25.572-.43H84.37a.434.434 0 00-.417.302l-2.906 9.395-3.192-9.405a.434.434 0 00-.413-.292H74.88a.435.435 0 00-.413.292l-3.192 9.405-2.906-9.395a.437.437 0 00-.416-.302H64.28a.431.431 0 00-.414.566l5.392 15.905c.06.176.226.293.414.293h2.915c.188 0 .356-.12.413-.293l3.164-9.291 3.163 9.291c.06.176.226.293.414.293h2.915c.188 0 .356-.12.413-.293l5.393-15.905a.422.422 0 00-.06-.387.452.452 0 00-.36-.18zm5.522 0h-3.28a.432.432 0 00-.436.43v15.9c0 .238.194.43.435.43h3.281a.432.432 0 00.436-.43V7.17a.432.432 0 00-.436-.43zM56.417 22.956c.19.21.035.548-.254.548H52.14a.552.552 0 01-.423-.199l-.68-.811a8.9 8.9 0 01-4.817 1.41c-4.896 0-8.877-3.943-8.877-8.786 0-4.842 3.984-8.784 8.877-8.784 4.896 0 8.877 3.942 8.877 8.784a8.642 8.642 0 01-1.412 4.742l2.731 3.096zm-7.97-3.543l-1.762-2.095a.338.338 0 01.261-.554h3.685c.175-.516.273-1.07.273-1.642 0-2.628-1.974-4.89-4.686-4.89-2.712 0-4.686 2.266-4.686 4.89 0 2.627 1.974 4.858 4.686 4.858.826 0 1.577-.208 2.229-.567zm-21.178 3.461c.099.664-.111.938-.324.938-.232 0-.522-.268-.865-.8-.34-.521-.464-1.122-.296-1.425.112-.2.344-.289.636-.179.57.214.792 1.073.85 1.466zm-3.135 1.445c.68.569.887 1.245.528 1.72-.2.262-.524.406-.912.406a1.63 1.63 0 01-1.04-.37c-.617-.536-.798-1.4-.398-1.895.16-.192.414-.299.722-.299.372.003.763.157 1.1.438zm-1.138 5.49c2.928 0 6.104.994 9.62 4.078.354.308.821-.076.516-.46-3.456-4.317-6.651-5.138-9.84-5.833-3.898-.85-5.904-3.02-7.303-5.406-.277-.475-.404-.39-.43.22-.031.746.023 1.734.191 2.703-.155.007-.314.007-.473.007-5.577 0-10.101-4.474-10.101-9.996s4.52-9.997 10.1-9.997c5.577 0 10.101 4.475 10.101 9.997 0 .393-.019.78-.063 1.16-.738-.131-2.19-.147-3.208-.06-.382.032-.33.212-.038.262 3.338.598 5.633 2.646 6.155 6.359.013.085.124.11.168.038a14.936 14.936 0 002.162-7.763C30.556 6.768 23.715 0 15.277 0 6.839 0 0 6.768 0 15.118 0 23.47 6.839 30.24 15.277 30.24c2.241 0 4.46-.431 7.72-.431z" fill="#FF8C00"/></svg><svg fill="none" viewBox="0 0 92 18" id="SberBank" xmlns="http://www.w3.org/2000/svg"><path d="M24.054 10.557c.393.407.868.727 1.394.94.641.236 1.322.35 2.006.338.391 0 .757-.048 1.057-.073.3-.038.595-.108.88-.208.269-.073.489-.194.709-.265.174-.098.353-.187.537-.265l-.273-.565a4.802 4.802 0 01-.465.208c-.16.073-.323.137-.489.192a2.497 2.497 0 01-.611.121c-.267.043-.538.06-.808.048-.488.018-.97-.099-1.394-.338a2.731 2.731 0 01-.88-.867 4.304 4.304 0 01-.423-1.301c-.08-.543-.121-1.09-.123-1.639 0-.459.049-.94.074-1.422.037-.437.156-.863.35-1.257.174-.368.433-.69.757-.94.41-.256.885-.39 1.37-.386.49-.007.969.14 1.369.417.391.264.611.698.709 1.278h.61v-1.85a8.638 8.638 0 00-.61-.208 3.359 3.359 0 00-.709-.144c-.269-.048-.489-.048-.757-.073-.212 0-.466-.048-.635-.048a6.242 6.242 0 00-2.128.338 3.65 3.65 0 00-1.452.973c-.396.436-.678.96-.822 1.529a6.714 6.714 0 00-.269 2.05c-.015.66.076 1.32.27 1.953.126.542.386 1.044.756 1.464zM61.155 11.522a3.29 3.29 0 001.248-.386c.388-.213.696-.542.88-.94.25-.527.368-1.106.343-1.687a3.374 3.374 0 00-.212-1.3 2.111 2.111 0 00-.708-.893 3.535 3.535 0 00-1.297-.482 9.123 9.123 0 00-1.931-.144h-.808V3.47a.57.57 0 01.146-.46c.194-.073.404-.098.611-.072h1.149c.294-.011.588.005.88.048.194.011.38.079.537.194.154.12.272.278.343.458.111.257.201.523.268.795h.474V2.36h-6.98v.29c.048 0 .074.048.194.048.123.048.197.073.212.121a.87.87 0 01.122.209c0 .12.049.208.049.385v7.135a.933.933 0 01-.049.386c0 .121-.048.192-.122.209a.331.331 0 01-.212.12.427.427 0 01-.195.049v.29h3.523c.513 0 1.025-.027 1.535-.08zm-2.308-.675a.345.345 0 01-.122-.265c0-.121-.049-.265-.049-.459v-3.88h.808c.709 0 1.248.192 1.566.554.317.363.465.964.465 1.785.013.438-.036.876-.146 1.301-.08.278-.224.534-.423.747a2.908 2.908 0 01-.563.337 3.315 3.315 0 01-.685.073c-.212-.047-.423-.047-.538-.072a.467.467 0 01-.313-.121zM51.177 11.305c-.048 0-.074-.048-.194-.048-.123-.048-.197-.073-.212-.12-.015-.049-.074-.122-.123-.21 0-.12-.048-.208-.048-.385V7.978h.954a8.579 8.579 0 001.394-.121 3.362 3.362 0 001.174-.417c.353-.212.634-.523.808-.893a3.41 3.41 0 00.294-1.543 3.598 3.598 0 00-.269-1.422 2.476 2.476 0 00-.761-.81 2.565 2.565 0 00-1.1-.339c-.43-.05-.864-.074-1.297-.073h-3.725v.29c.049 0 .074.048.197.048.122.048.194.073.211.121.05.064.092.134.123.209 0 .12.048.208.048.385v7.112a.923.923 0 01-.048.386c0 .121-.049.192-.123.209a.331.331 0 01-.211.12.428.428 0 01-.197.049v.264h3.082l.023-.264v.016zM50.663 3.4a.355.355 0 01.049-.209.208.208 0 01.074-.144.303.303 0 01.211-.073c.123 0 .212-.048.423-.048.23.013.459.037.686.073.209.075.4.19.563.338.16.189.292.4.39.626.084.314.125.638.123.963 0 .794-.122 1.374-.342 1.785-.22.41-.635.625-1.223.625h-.954V3.4zM46.85 9.473h-.612a7.44 7.44 0 01-.212.867.865.865 0 01-.294.482.723.723 0 01-.537.192 5.133 5.133 0 01-.954.048 4.305 4.305 0 01-.88-.048 1.468 1.468 0 01-.489-.144.376.376 0 01-.194-.29 1.628 1.628 0 01-.049-.53V7.11h1.623c.145 0 .294.048.465.048.157.015.312.039.465.073.136.033.267.082.392.144V6.17a.943.943 0 01-.392.144 9.108 9.108 0 01-.928.12h-1.64V3.37c0-.143.026-.284.074-.417.074-.073.197-.073.392-.073h1.028c.294-.011.589.005.88.048.193.015.379.081.537.191.154.12.272.279.343.46.111.257.201.523.268.796h.489V2.36h-6.526v.29c.049 0 .074.048.195.048.123.048.194.073.211.121.05.064.092.134.123.209 0 .12.049.208.049.385v7.113a.928.928 0 01-.049.386c0 .12-.049.191-.123.208a.331.331 0 01-.211.12.427.427 0 01-.195.049v.265h6.75V9.473zM36.529 11.522a3.289 3.289 0 001.248-.386c.389-.218.704-.545.905-.94.25-.527.368-1.105.343-1.687a3.37 3.37 0 00-.212-1.3 2.111 2.111 0 00-.709-.893 3.535 3.535 0 00-1.296-.482 9.117 9.117 0 00-1.932-.144h-.808V3.47a.571.571 0 01.146-.46c.195-.073.405-.098.612-.072h1.148c.295-.011.59.005.88.048.194.016.38.083.538.194.153.12.272.278.342.459.112.256.202.522.269.794h.489V2.36H31.49v.29c.048 0 .074.048.197.048.122.048.194.073.211.121.05.064.092.134.123.209 0 .12.048.208.048.385v7.112a.993.993 0 01-.048.386c0 .121-.049.192-.123.209a.331.331 0 01-.212.12.429.429 0 01-.196.049v.338h3.522c.567-.032 1.026-.032 1.517-.105zm-2.3-.675a.345.345 0 01-.123-.265c0-.121-.048-.265-.048-.459v-3.88h.808c.709 0 1.248.192 1.565.554.318.363.466.964.466 1.785.012.439-.037.876-.146 1.301-.08.279-.225.534-.423.747a2.898 2.898 0 01-.563.338 3.316 3.316 0 01-.685.073c-.212-.048-.392-.048-.538-.073a.43.43 0 01-.313-.121zM91.802 14.22H22.98v.893h68.822v-.893zM86.298 8.124c.197.264.343.481.537.698.146.209.343.459.489.676.147.236.31.462.489.675.18.238.343.487.488.747.146.208.269.481.392.698l3.173.048c-.343-.338-.635-.675-.978-1.013a15.571 15.571 0 00-.759-.82c-.294-.337-.563-.625-.806-.892a24.166 24.166 0 01-.709-.82 9.303 9.303 0 01-.634-.819c-.172-.265-.423-.603-.612-.892l.146-.192c.212-.29.49-.603.809-.964.291-.383.61-.745.954-1.084.309-.353.637-.69.983-1.01a8.57 8.57 0 01.88-.698h-2.202a5.78 5.78 0 01-.343.676c-.154.3-.334.587-.537.857-.195.29-.423.626-.611.963-.189.338-.423.626-.635.94a8.676 8.676 0 01-.611.82c-.195.265-.343.459-.466.626.172.248.366.515.563.78z" fill="#2F9A41"/><path d="M86.03 11.306c-.05 0-.075-.048-.197-.048-.123-.048-.195-.073-.212-.121a.86.86 0 01-.122-.209c0-.12-.05-.208-.05-.386V3.453a.925.925 0 01.05-.386c0-.12.048-.191.122-.208a.881.881 0 01.212-.121.428.428 0 01.196-.048v-.313h-3.082v.29c.049 0 .074.048.197.048.123.048.195.073.212.12a.86.86 0 01.122.21c0 .12.049.208.049.385v7.112a.923.923 0 01-.049.386c0 .121-.048.192-.122.209a.33.33 0 01-.212.12.428.428 0 01-.197.049v.264h3.082v-.264zM65.617 10.486c.122-.53.342-1.278.634-2.218h3.008l.423 1.205c.177.438.318.889.423 1.349.102.263.168.539.195.82h2.397c-.123-.192-.212-.46-.392-.747a11.56 11.56 0 01-.537-1.301l-2.175-6.076a3.25 3.25 0 01-.196-.676c-.05-.192-.05-.338-.075-.459h-2.688v.29c.049 0 .074.048.195.048.122.048.194.073.211.121.05.064.092.134.123.209v.191c.002.207-.04.413-.123.603l-1.517 3.664c-.268.675-.537 1.278-.708 1.711-.172.434-.392.868-.489 1.158-.146.29-.268.554-.391.746a5.25 5.25 0 00-.269.482h1.711c.057-.378.137-.752.24-1.12zM67.77 3.88L69 7.617h-2.587L67.77 3.88zM76.27 11.305h-.077c-.049 0-.074-.048-.197-.048-.122-.048-.194-.073-.211-.12a.87.87 0 01-.123-.21c0-.12-.048-.208-.048-.385V6.998h3.644v3.52a.925.925 0 01-.048.385c0 .12-.049.192-.123.208a.331.331 0 01-.212.121.429.429 0 01-.194.048v.29h3.082v-.29c-.049 0-.074-.048-.195-.048-.123-.048-.197-.073-.211-.12a.844.844 0 01-.123-.21c0-.12-.049-.208-.049-.385V3.37a.925.925 0 01.049-.386c0-.121.049-.192.123-.209a.888.888 0 01.211-.12.428.428 0 01.195-.049V2.36H78.73v.29c.05 0 .075.048.195.048.123.048.197.073.212.121.05.064.091.134.122.209 0 .12.049.208.049.385v2.974h-3.6V3.399a.931.931 0 01.048-.386c0-.121.049-.192.123-.209a.877.877 0 01.212-.12.372.372 0 01.194-.048V2.36h-3.073v.29c.048 0 .074.048.194.048.123.048.195.073.212.121.05.064.091.134.123.209 0 .12.048.208.048.385v7.135a.988.988 0 01-.049.386c0 .121-.048.192-.122.209a.331.331 0 01-.212.12.428.428 0 01-.194.049v.29h3.082l-.026-.313v.016zM16.718 3.326c-.196-.265-.391-.53-.562-.797L5.638 8.484.561 5.615c-.116.31-.187.634-.211.963l5.337 3.047 11.031-6.3z" fill="#2F9A41"/><path d="M5.638 10.726L.185 7.64c-.04.19-.057.384-.049.577 0 2.36.951 4.622 2.644 6.29a9.092 9.092 0 006.381 2.606c2.394 0 4.69-.937 6.382-2.605a8.832 8.832 0 002.643-6.29 8.63 8.63 0 00-.977-4.05L5.64 10.726z" fill="#2F9A41"/><path d="M15.422 1.783a9.943 9.943 0 00-.808-.676L5.638 6.243 1.31 3.807c-.146.265-.294.555-.465.868l4.745 2.7 9.832-5.592z" fill="#2F9A41"/><path d="M13.734.53c-.34-.2-.694-.378-1.058-.53L5.638 3.995 2.484 2.24c-.211.209-.423.482-.634.747L5.615 5.11 13.734.53z" fill="#2F9A41"/></svg><svg fill="none" viewBox="0 0 97 52" id="Tinkoff" xmlns="http://www.w3.org/2000/svg"><path d="M4.034 45.126H.167v-2.35h10.55v2.35H6.85v6.476H4.034v-6.476zM21.528 42.776v8.789h-2.722v-5.107l-4.692 5.125H11.71v-8.788h2.722v5.125l4.692-5.125 2.403-.019zM26.215 51.583h-2.721v-8.788h2.721v3.238h4.374v-3.238h2.721v8.788H30.59v-3.275h-4.373v3.275zM35.277 51.583v-8.788h2.721v2.35h2.816a5.882 5.882 0 011.99.24 3.009 3.009 0 011.52 1.135c.37.53.554 1.164.525 1.807a3.01 3.01 0 01-.623 1.936 3.087 3.087 0 01-1.723 1.117 6.257 6.257 0 01-1.708.203h-5.518zm2.721-2.128h2.347c.361.032.726-.012 1.07-.13.207-.083.384-.227.508-.412.124-.185.189-.402.186-.623a.975.975 0 00-.192-.6.999.999 0 00-.521-.362 3.216 3.216 0 00-1.051-.111h-2.347v2.238zM48.8 51.583H46.08v-8.788H48.8v3.312h.751l3.285-3.312h3.416l-4.355 4.218 4.524 4.589h-3.623l-3.247-3.33h-.75v3.311z" fill="#222220"/><path d="M67.922 47.18c0 2.627-2.196 4.662-5.837 4.662-3.642 0-5.856-2.035-5.856-4.662s2.196-4.626 5.88-4.626c3.683 0 5.813 2.017 5.813 4.626zm-2.853 0c0-1.443-1.182-2.498-2.984-2.498S59.1 45.737 59.1 47.18c0 1.443 1.164 2.516 2.985 2.516 1.82 0 2.984-1.055 2.984-2.516zM82.375 47.18c0 2.516-2.046 3.83-5.48 3.904v.888h-2.722v-.888c-3.416-.074-5.462-1.388-5.462-3.904 0-2.517 2.046-3.941 5.462-4.015v-.888h2.721v.888c3.435.074 5.481 1.498 5.481 4.015zm-8.202-2.11c-1.877.074-2.703.925-2.703 2.11 0 1.184.826 1.942 2.703 2.016V45.07zm5.424 2.11c0-1.184-.807-2.036-2.703-2.11v4.126c1.896-.074 2.703-.832 2.703-2.016zM96.833 47.18c0 2.516-2.046 3.83-5.481 3.904v.888H88.63v-.888c-3.416-.074-5.462-1.388-5.462-3.904 0-2.517 2.046-3.941 5.462-4.015v-.888h2.722v.888c3.43.074 5.48 1.498 5.48 4.015zm-8.203-2.11c-1.877.074-2.703.925-2.703 2.11 0 1.184.826 1.942 2.703 2.016V45.07zm5.42 2.11c0-1.184-.807-2.036-2.703-2.11v4.126c1.896-.074 2.703-.832 2.703-2.016z" fill="#222220"/><path d="M67.448 15.625l.47-1.554-1.629.05a3.875 3.875 0 01-2.088-.707h.22a2.652 2.652 0 001.382-.392c.415-.255.75-.62.965-1.051l.7-1.531a12.819 12.819 0 01-1.686-.097 2.616 2.616 0 01-1.37-.82 2.627 2.627 0 00-1.877-.81 2.743 2.743 0 00-.82.13c.039-.123.07-.25.093-.378a3.401 3.401 0 00-.713-2.526L59.87 4.445l-.76 1.758c-.12.25-.305.463-.535.62a3.247 3.247 0 00-.901-1.652 4.048 4.048 0 00-1.337-.895 4.096 4.096 0 00-1.587-.307 3.705 3.705 0 00-.572.041l-1.455.282c.129-.49.331-.957.601-1.387l.807-1.268-2.055.232L51.423.48l-1.266.643L48.969 0l-1.168 1.142L46.534.5l-.652 1.35-2.074-.213.816 1.254c.27.43.47.898.596 1.388l-1.408-.273h-.047a3.807 3.807 0 00-.59-.042 4.09 4.09 0 00-1.587.307 4.044 4.044 0 00-1.337.896 3.252 3.252 0 00-.906 1.651 1.556 1.556 0 01-.53-.606l-.737-1.762-1.243 1.503a3.428 3.428 0 00-.7 2.516c.024.128.055.255.094.38a2.71 2.71 0 00-.82-.13 2.631 2.631 0 00-1.878.81c-.356.403-.83.688-1.356.818a9.709 9.709 0 01-1.699.097l.7 1.531c.216.432.55.796.964 1.05.415.256.893.392 1.382.393h.22a3.874 3.874 0 01-2.088.722l-1.656-.05.502 1.553c.18.598.533 1.131 1.015 1.535a3.28 3.28 0 001.702.736 2.549 2.549 0 01-.472 1.114 2.595 2.595 0 01-.936.778l-1.234.5.675 1.156c.274.42.65.764 1.095 1.001.445.237.943.359 1.449.354.268 0 .535-.028.798-.083.06.289.135.575.225.856.232.607.249 1.274.047 1.892l-.61 1.258 1.36.351c.307.077.623.116.939.116.231 0 .461-.028.685-.083.16-.035.317-.083.47-.144.174.31.388.596.638.851.872.884 2.111 1.333 3.674 1.333h1.117l-2.31.925 1.756.837c.705.344 1.427.653 2.163.925l-.22.592.605.273c1.004.39 2.07.61 3.149.648h1.44a9.593 9.593 0 003.13-.643l.605-.273-.22-.592a23.595 23.595 0 002.187-.958l1.722-.823-2.304-.925h1.121c1.568 0 2.816-.463 3.68-1.332.249-.255.463-.542.637-.852.153.06.31.108.47.144.218.05.442.075.666.074.316 0 .631-.04.938-.116l1.37-.356-.595-1.235a2.81 2.81 0 01.037-1.92 9.6 9.6 0 00.244-.85c.264.054.533.082.803.083a3.004 3.004 0 001.458-.365 2.953 2.953 0 001.09-1.023l.666-1.142-1.234-.5a2.585 2.585 0 01-.937-.777 2.538 2.538 0 01-.471-1.115 3.308 3.308 0 001.698-.74 3.234 3.234 0 001.019-1.53l-.052.027z" fill="#fff"/><path d="M48.97 4.76c-1.31 0-2.29.426-2.502.925l2.501.971 2.506-.976c-.211-.5-1.192-.925-2.506-.925M48.998 30.528h-.029a10.384 10.384 0 01-2.412-.305l-.652 1.693c2.005.57 4.133.57 6.138 0l-.634-1.688a10.41 10.41 0 01-2.411.305M53.788 28.858c-.686.338-1.4.62-2.134.842l.51 1.388a12.921 12.921 0 002.375-.87l-1.065-.347.315-1.013zM44.16 28.858l.314 1.013-1.065.347c.759.366 1.553.657 2.37.87l.516-1.388a14.058 14.058 0 01-2.135-.842zM48.97 3.145a5.73 5.73 0 012.697.643c.08-.266.178-.527.291-.781l-.281.032-.296.032-.126-.263-.376-.782-.685.352-.267.134-.212-.2-.746-.744-.741.745-.211.208-.268-.134-.69-.352-.37.782-.127.264-.295-.033-.282-.032c.113.254.21.515.29.782a5.739 5.739 0 012.694-.653zM64.032 12.198c.125.043.257.065.39.064.263-.002.52-.074.746-.208.226-.135.41-.326.535-.555a3.628 3.628 0 01-2.126-1.16 1.407 1.407 0 00-1.037-.463 1.668 1.668 0 00-.863.259c1.328.698 1.6 1.818 2.346 2.067M33.526 12.262c.131 0 .262-.021.385-.064.76-.25 1.032-1.388 2.346-2.068a1.669 1.669 0 00-.863-.259 1.425 1.425 0 00-1.042.463 3.623 3.623 0 01-2.12 1.16c.124.23.308.42.534.555.225.134.483.207.746.209" fill="#fff"/><path d="M64.394 16.749h.06c1.408 0 1.878-1.471 1.878-1.471h-.029a5.102 5.102 0 01-2.107-.533 5.03 5.03 0 01-1.684-1.359c-.962-1.207-1.755-2.266-3.313-2.683l-.155-.027-.033-.153c-.042-.236.122-.463.47-.694 2.153-1.388.69-3.16.69-3.16s-.615 1.416-1.99 1.416h-.103a2.95 2.95 0 01-.47-.046l-.253-.046c.103-.354.106-.73.009-1.085a2.011 2.011 0 00-.563-.932 2.899 2.899 0 00-2.079-.851 2.303 2.303 0 00-.413.032c.47.61.822 1.628.273 2.258-.47.54-1.633.564-1.633 1.387 0 .343.323.736.9 1.092 1.742 1.082 3.468 2.516 4.19 4.436.897 2.396-.112 3.987-1.557 4.903.313.26.7.422 1.108.462h.384a3.318 3.318 0 002.103-.643 3.587 3.587 0 01-.84 1.707 3.582 3.582 0 01-1.294.938 3.632 3.632 0 01-1.578.288 1.5 1.5 0 00.582 1.143 2.93 2.93 0 001.248.462s-1.633.328-1.816 2.706a3.6 3.6 0 01-.432 1.735h.028c3.792 0 3.693-3.206 3.693-3.206.099.295.272.56.503.77a1.848 1.848 0 001.215.474c.215-.001.429-.027.638-.078a3.875 3.875 0 010-2.776 6.458 6.458 0 00.38-2.312c.213.257.486.461.795.595.31.133.647.192.983.172a1.8 1.8 0 00.86-.201 1.77 1.77 0 00.656-.585c-2.53-1.036-2.276-4.371-2.276-4.371.291.175.626.267.967.264l.005-.028zm-.765 3.515c-1.028-.5-1.68-1.827-1.835-2.313-.155 2.61-1.469 4.436-2.97 6.194a5.605 5.605 0 00-1.066 1.795 4.135 4.135 0 01.836-1.818c1.407-1.684 2.773-3.78 2.871-6.198.08-1.47-.29-2.93-1.06-4.191.24.683.276 1.42.103 2.123a3.757 3.757 0 01-1.08 1.841s2.605-3.071-1.036-6.226c-1.455-1.198-3.05-1.938-3.871-2.465 2.96.953 4.41-.097 4.41-.097a3.65 3.65 0 01-2.933.68c.207.097.423.203.653.323 2.496 1.337 4.744 3.539 5.124 6.587v-.023c.582 2.993 1.877 3.76 1.877 3.76M39.753 23.562c.441-.05.865-.198 1.24-.435a1.519 1.519 0 00.548-1.137 3.641 3.641 0 01-1.58-.288 3.61 3.61 0 01-2.13-2.645 3.289 3.289 0 002.1.643h.39c.41-.04.797-.201 1.112-.463-1.445-.925-2.459-2.502-1.562-4.903.718-1.92 2.45-3.358 4.19-4.435.577-.357.901-.754.901-1.092 0-.805-1.16-.828-1.633-1.388-.549-.629-.206-1.642.267-2.257a2.295 2.295 0 00-.412-.032 2.899 2.899 0 00-2.08.85c-.27.255-.465.577-.563.933-.097.355-.094.73.01 1.085l-.253.05a3.059 3.059 0 01-.47.047h-.098c-1.38 0-1.99-1.416-1.99-1.416s-1.44 1.763.709 3.15c.37.236.535.463.469.694l-.033.153-.155.027c-1.558.417-2.346 1.476-3.313 2.683a5.027 5.027 0 01-1.674 1.347 5.099 5.099 0 01-2.094.531h-.042s.47 1.471 1.877 1.471h.066c.34.003.676-.088.967-.264 0 0 .248 3.335-2.281 4.372.165.245.39.446.656.584.265.137.56.207.86.202.337.02.673-.04.983-.173.309-.133.581-.337.795-.595-.015.787.114 1.57.38 2.313.342.894.342 1.88 0 2.775.208.05.42.077.634.079a1.847 1.847 0 001.214-.475 1.81 1.81 0 00.503-.77s-.098 3.206 3.693 3.206h.028a3.622 3.622 0 01-.427-1.735c-.178-2.377-1.816-2.706-1.816-2.706l.014.014zm-.624.564c-1.52-1.757-2.815-3.58-2.998-6.212-.155.463-.807 1.804-1.835 2.313 0 0 1.29-.768 1.877-3.76v.023c.385-3.048 2.628-5.25 5.129-6.587.23-.125.446-.226.652-.324a3.65 3.65 0 01-2.928-.68s1.445 1.05 4.41.098c-.81.532-2.406 1.272-3.852 2.47-3.641 3.15-1.037 6.225-1.037 6.225a3.758 3.758 0 01-1.079-1.84 3.719 3.719 0 01.103-2.123 7.26 7.26 0 00-1.06 4.19c.098 2.424 1.45 4.515 2.867 6.198.425.53.714 1.154.84 1.818a5.665 5.665 0 00-1.07-1.795M46.154 11.846c.06.065.122.139.183.208l.042.051.164.222.038.05c.06.093.122.195.183.292.21.413.521.767.907 1.028s.833.422 1.298.466c.465-.045.91-.205 1.295-.465.385-.26.697-.613.906-1.024.061-.102.122-.204.188-.296l.028-.042c.056-.078.113-.157.169-.231l.038-.046c.06-.074.121-.148.187-.213l.033-.028a2.272 2.272 0 011.046-.615l-.192-.11-.77-.463-.788-.463-2.14 1.166-2.111-1.134-.789.463-.77.462-.196.111c.396.095.76.293 1.05.574l.034.032-.033.005zm1.98-.097h1.774v.606a.758.758 0 00-.62-.204v.87c.005.215.063.427.17.615h-.883c.108-.188.166-.4.17-.615v-.865a.766.766 0 00-.62.203l.01-.61z" fill="#fff"/><path d="M48.791 10.583V7.045l-2.285-.763.586 3.432 1.699.87zm-.47-2.669v.57l-.112-.052a1.414 1.414 0 01-.47-.263 1.036 1.036 0 01-.468-.69l1.05.435zM50.846 9.713l.601-3.427-2.285.763v3.539l1.684-.875zM49.655 7.92l1.036-.43a1.013 1.013 0 01-.469.689 1.412 1.412 0 01-.469.264l-.108.05.01-.573zM45.558 18.784c.203.065.415.098.629.097v-.065c.013-.04.024-.082.033-.124.033-.185.052-.372.056-.56a.79.79 0 01-.3-.315.394.394 0 00-.385-.259 1.255 1.255 0 00-.582.2.991.991 0 00.1.591c.094.183.242.333.425.43M50.612 16.906c-.423.463-1.258 1.25-1.295 1.286l-.052.051-2.642-.042c-.002.214-.03.427-.084.634v.083l3.12.555c.324-.222 1.22-.87 1.567-1.119a1.481 1.481 0 01-.22-1.096 1.56 1.56 0 01-.394-.347" fill="#fff"/><path d="M50.968 13.798c-.25.276-.557.496-.9.648-.342.151-.714.23-1.09.23-.095.006-.19.006-.285 0a2.139 2.139 0 01-.282-.04c-.06.223-.044.46.047.674a1.07 1.07 0 00.657.537l.108.042v.115c.013.236.104.46.259.64.155.18.366.305.6.355.136-.139.258-.264.351-.366a.84.84 0 01.165-.994c-.038.272.007.55.128.796.122.247.316.453.557.591l.131.06-.037.14c-.086.27-.062.562.067.814.128.253.352.447.622.54l.174.066-.075.166c-.113.25-.124.534-.03.793.093.258.284.471.532.595H54.6v-1.527a1.242 1.242 0 01-.703-.336 1.21 1.21 0 01-.357-.686 1.13 1.13 0 01-.742-.416.918.918 0 01-.075-1.046c.005.31.12.608.324.842.169.173.396.28.638.3h.141v.144a.918.918 0 00.238.558c.14.154.33.258.536.293v-3.113c.019-.486.125-.966.315-1.415h-3.947zM45.722 15.223l-.052 1.984.23.032.559-1.9-.282-.588-.455.472zM51.888 24.32h.056c.348.098.437 1.333 1.047 1.444.054.005.11.005.164 0a.474.474 0 00.394-.208s-.305-.463-.535-.796c-.305-.42-.54-.925-1.112-.925h-.042a.574.574 0 00-.3.097 1.19 1.19 0 00-.639-.19c-.26.032-.518.086-.77.162l-1.266-.125a.67.67 0 01-.413-.29v-.033-.102c.008-.335-.1-.662-.305-.928a1.499 1.499 0 00-.826-.538s.033-.195-.042-.269l-.282.334-.938-.463.657.754-.582.647a.17.17 0 00-.033.204l.24.208.304-.18a.143.143 0 01.075 0h.324c.113 0 .23-.028.244-.139-.037.38-.394 1.036-.16 1.554l.174.393-1.121-.157-.516.879a.697.697 0 00-.033.777l.197.24c.136-.136.25-.292.338-.462l-.09-.097a.184.184 0 01-.023-.24l.329-.537 1.323.305.07-.116a.384.384 0 01.362-.19c.059-.004.118-.004.178 0 .348.07.701.107 1.056.112a1.533 1.533 0 001.116-.338c.47.703 1.45.814 1.375 1.17l-.258 1.198c.17 0 .334 0 .47-.037l.244-1.249c.028-.134.051-.319.051-.319a2.323 2.323 0 01-.47-.532c-.173-.323-.079-.495-.238-.925a.185.185 0 01.16-.097l.046.005zm-5.002-1.762a.113.113 0 01-.103-.076.109.109 0 01-.005-.044.11.11 0 01.077-.101.114.114 0 01.045-.005c.03 0 .06.012.081.033a.113.113 0 01-.081.193" fill="#fff"/><path d="M45.126 25.44s.441-.18.47-.305l-.057-.143a.192.192 0 01.042-.25l.47-.324.793.148a.654.654 0 01-.132-.411l-.755-.158-.714.426a.68.68 0 00-.225.81l.108.207zM50.724 27.49h.47s.408-1.175.431-1.212c-.303-.14-.599-.294-.887-.463.122.18.413.38.357.537l-.37 1.137z" fill="#fff"/><path d="M54.6 20.528H43.338v4.163c0 1.707 1.253 2.775 3.102 2.775 1.544 0 1.952.06 2.53.62a1.877 1.877 0 011.407-.587v-.065l.357-1.082-.6-.676a2.203 2.203 0 01-.747.088 6.185 6.185 0 01-1.117-.116.523.523 0 00-.117 0c-.052 0-.052 0-.066.028l-.07.116-.127.208-.244-.055-1.08-.25-.15.24v.028l.132.143-.056.185c-.099.227-.24.433-.418.606l-.272.287-.244-.305-.183-.227a.919.919 0 01-.132-.888l-.305.125-.136-.291-.093-.209a1 1 0 01.342-1.225l.868-.463.826.162c0-.079.052-.356.075-.43h-.047l-.469.175-.47-.314a.24.24 0 01-.053-.264.24.24 0 01.054-.078l.446-.666-1.131-1.388 1.736.703.117-.139.235-.277.267.25c.07.066.119.151.141.245.47.185 1.333.726 1.408 1.605l-.268.106a.327.327 0 00.127.102l1.239.12.112-.032c.21-.078.433-.12.657-.125.225.001.446.052.648.148a.99.99 0 01.277-.056h.06c.27.024.53.118.75.272.221.155.397.364.508.607l.136.195c.23.323.536.79.545.814l.136.208-.169.19a.824.824 0 01-.652.319c-.075.007-.15.007-.225 0a.982.982 0 01-.198-.06c0 .064 0 .143-.037.208l-.216 1.115a2.652 2.652 0 001.572-.966 2.583 2.583 0 00.544-1.745v-4.177zM43.338 20.195h8.757a1.381 1.381 0 01-.32-1.387 1.463 1.463 0 01-.328-.213c-.343.25-1.408.999-1.661 1.189l-.056.037-3.435-.61h-.07a2.94 2.94 0 01-.334 0 .328.328 0 01-.116.185.336.336 0 01-.208.073h-.056a.343.343 0 01-.22-.135.334.334 0 01-.062-.249v-.074a1.358 1.358 0 01-.477-.615 1.337 1.337 0 01-.058-.773l.052-.046.052-.037s.065-.046.155-.092l-.25-.037a.174.174 0 01-.11-.07.17.17 0 01-.007-.187.169.169 0 01.174-.076l.596.092.056-2.063.887-.925.554 1.147-.582 1.985.526.083a.174.174 0 01.11.069.17.17 0 01.03.125.166.166 0 01-.058.1.171.171 0 01-.11.039h-.029l-.427-.07v.033c.048.082.12.149.207.19l2.618.041.671-.652a1.406 1.406 0 01-.637-.443 1.378 1.378 0 01-.301-.709 1.363 1.363 0 01-.746-.67 1.37 1.37 0 01-.061-.926 3.061 3.061 0 01-1.094-.721h-3.937c.185.449.288.926.305 1.41v4.982z" fill="#FCE527"/><path d="M46.952 22.341a.112.112 0 00-.122.107.11.11 0 00.064.11c.013.006.028.01.044.01.03 0 .06-.012.08-.033a.113.113 0 000-.16.116.116 0 00-.08-.034M54.6 29.913l-.647-.245.178-.662.197-.721a15.45 15.45 0 01-2.768 1.078c-.47.13-.808.19-.808.19v.49a11.83 11.83 0 01-1.74.148h-.043a11.805 11.805 0 01-1.74-.148v-.49s-.348-.06-.808-.19c-.956-.27-1.883-.63-2.768-1.078l.155.721.183.662-.653.245-.722.264c.968.501 1.98.92 3.022 1.249l-.249.666a9.448 9.448 0 003.547.6h.033a9.445 9.445 0 003.548-.6l-.249-.666a18.885 18.885 0 003.022-1.25l-.69-.263zm-11.182.31l1.065-.347-.314-1.013c.687.338 1.401.62 2.135.842l-.516 1.388a13.03 13.03 0 01-2.37-.87zm5.551 2.123a11.996 11.996 0 01-3.064-.43l.634-1.688c.795.195 1.61.296 2.43.3h.052c.813-.007 1.623-.11 2.412-.305l.61 1.693c-1 .274-2.032.417-3.069.425l-.005.005zm3.196-1.258l-.516-1.388a14.047 14.047 0 002.135-.841l-.315 1.012 1.066.347c-.76.367-1.556.658-2.375.87M48.97 3.553a4.916 4.916 0 012.96.892 5.746 5.746 0 01.765-1.938l-1.065.12-.558-1.165-1.07.541L48.969.995l-1.032 1.008-1.07-.541-.554 1.166-1.065-.12a5.73 5.73 0 01.765 1.937 4.925 4.925 0 012.956-.892zm-2.703-.518l.295.032.127-.264.37-.781.69.351.268.134.21-.208.742-.73.746.744.216.208.268-.134.685-.351.375.781.127.264.296-.033.281-.032c-.114.254-.21.515-.29.782a5.982 5.982 0 00-5.392 0 6.696 6.696 0 00-.291-.782l.276.019zM64.455 17.198c1.708 0 2.28-1.712 2.304-1.786l.192-.601h-.638a4.633 4.633 0 01-1.915-.485 4.566 4.566 0 01-1.53-1.236l-.126-.157c-.873-1.092-1.699-2.133-3.182-2.609.06-.051.122-.097.188-.139a2.77 2.77 0 00.883-.78c.234-.318.395-.684.473-1.07a2.706 2.706 0 00-.563-1.975l-.47-.578-.309.694c0 .041-.52 1.142-1.572 1.142h-.286a2.465 2.465 0 00-.751-1.961 3.334 3.334 0 00-1.102-.734 3.374 3.374 0 00-1.305-.251c-.168-.001-.336.011-.502.037l-.718.139.44.573c.348.463.663 1.263.292 1.688-.178.153-.381.273-.6.357-.47.217-1.146.527-1.146 1.304 0 .504.399 1.031 1.117 1.475 2.126 1.319 3.435 2.692 4.003 4.21.877 2.312-.268 3.668-1.38 4.366l-.497.315.436.393c.39.327.87.529 1.38.578h.427c.435.002.869-.06 1.285-.185a3.136 3.136 0 01-1.504 1.33 3.18 3.18 0 01-1.396.247h-.417l-.033.412a1.92 1.92 0 00.7 1.498c.116.102.247.186.389.25a3.574 3.574 0 00-1.103 2.53 3.45 3.45 0 01-.352 1.513l-.47.694h.836c1.377 0 2.43-.372 3.163-1.115.38-.394.662-.869.826-1.388a2.25 2.25 0 001.44.518c.253 0 .505-.03.751-.088l.53-.138-.234-.49a3.442 3.442 0 010-2.424c.174-.511.295-1.038.361-1.573.423.212.891.32 1.365.315.381.005.758-.084 1.094-.26.336-.177.622-.434.83-.749l.258-.462-.469-.195c-1.572-.643-1.919-2.368-1.985-3.302.155.03.312.05.47.055l.122.098zm1.243 3.654a1.77 1.77 0 01-.655.584 1.8 1.8 0 01-.86.202c-.338.02-.674-.04-.984-.173a2.131 2.131 0 01-.795-.595 6.461 6.461 0 01-.385 2.313 3.874 3.874 0 000 2.775c-.209.051-.423.077-.638.079a1.849 1.849 0 01-1.214-.475 1.81 1.81 0 01-.504-.77s.1 3.206-3.692 3.206h-.029c.288-.534.436-1.13.432-1.735.178-2.377 1.811-2.706 1.811-2.706a2.927 2.927 0 01-1.238-.43 1.52 1.52 0 01-.55-1.137 3.627 3.627 0 001.58-.288 3.58 3.58 0 001.292-.938c.43-.485.72-1.075.84-1.707a3.289 3.289 0 01-2.102.643h-.385a2.051 2.051 0 01-1.107-.463c1.445-.925 2.454-2.502 1.558-4.903-.718-1.92-2.45-3.358-4.19-4.435-.578-.357-.902-.754-.902-1.092 0-.805 1.16-.828 1.633-1.388.55-.629.207-1.642-.272-2.257.137-.023.275-.034.413-.032a2.899 2.899 0 012.079.85c.27.255.465.577.562.933.098.355.095.73-.008 1.084l.253.051c.155.028.312.044.47.047h.103c1.374 0 1.99-1.416 1.99-1.416s1.459 1.772-.69 3.16c-.371.235-.536.462-.47.693l.033.153.155.028c1.558.416 2.346 1.475 3.313 2.682a5.032 5.032 0 001.67 1.339 5.104 5.104 0 002.084.53h.032s-.469 1.471-1.876 1.471h-.066a1.84 1.84 0 01-.967-.264s-.248 3.335 2.276 4.371" fill="#222220"/><path d="M61.46 10.528c.525.294.98.697 1.333 1.18.267.407.648.729 1.099.924.17.057.35.085.53.084.351-.001.696-.098.995-.279.3-.181.543-.44.703-.748l.273-.597-.662-.037a3.17 3.17 0 01-1.825-1.027 1.877 1.877 0 00-1.366-.597c-.4.007-.79.124-1.126.338l-.605.421.652.338zm1.085-.657a1.425 1.425 0 011.037.462 3.628 3.628 0 002.125 1.161c-.124.229-.31.42-.534.554a1.49 1.49 0 01-.747.21c-.132 0-.264-.022-.39-.065-.755-.25-1.027-1.388-2.345-2.068.257-.164.556-.253.863-.259M61.756 16.472c-.384-3.049-2.627-5.25-5.124-6.587-.23-.12-.446-.227-.652-.324a3.655 3.655 0 002.933-.68s-1.445 1.05-4.411.097c.821.523 2.412 1.263 3.871 2.466 3.637 3.15 1.037 6.226 1.037 6.226a3.757 3.757 0 001.08-1.841 3.719 3.719 0 00-.104-2.123 7.285 7.285 0 011.06 4.19c-.098 2.424-1.45 4.515-2.871 6.198a4.136 4.136 0 00-.835 1.818 5.61 5.61 0 011.084-1.767c1.52-1.758 2.815-3.58 2.993-6.212.155.463.807 1.804 1.835 2.313 0 0-1.295-.768-1.877-3.76M42.372 27.753a3.553 3.553 0 01-.352-1.512 3.574 3.574 0 00-1.103-2.53 1.942 1.942 0 00.909-.922c.12-.26.182-.542.18-.827l-.028-.412h-.423a3.179 3.179 0 01-1.393-.247 3.137 3.137 0 01-1.14-.826 3.379 3.379 0 01-.376-.518c.415.124.847.187 1.28.185h.428c.51-.05.99-.254 1.38-.583l.436-.393-.498-.314c-1.112-.703-2.252-2.035-1.379-4.367.568-1.517 1.877-2.89 4.003-4.209.718-.462 1.112-.976 1.112-1.475 0-.777-.657-1.083-1.14-1.305a2.009 2.009 0 01-.601-.356c-.376-.425-.061-1.244.286-1.688l.446-.574-.723-.139a3.197 3.197 0 00-.497-.037 3.369 3.369 0 00-1.306.251 3.33 3.33 0 00-1.101.735 2.47 2.47 0 00-.718 1.933h-.282c-1.08.014-1.595-1.087-1.595-1.147l-.296-.69-.47.579a2.72 2.72 0 00-.558 1.975c.078.386.24.752.474 1.071.234.32.535.585.883.78.066.04.129.087.187.138-1.483.463-2.308 1.517-3.181 2.609l-.127.157c-.413.517-.935.94-1.531 1.237a4.631 4.631 0 01-1.918.484h-.643l.197.601c0 .074.591 1.786 2.3 1.786h.084c.158-.007.315-.025.47-.056-.071.925-.418 2.66-1.99 3.303l-.47.194.258.462c.209.316.495.575.832.752.337.177.715.267 1.097.261.473.005.94-.103 1.36-.314.067.535.188 1.062.362 1.572a3.44 3.44 0 010 2.424l-.234.49.535.14c.246.057.497.086.75.087a2.241 2.241 0 001.44-.518c.163.519.444.994.822 1.388.732.743 1.786 1.114 3.163 1.114h.835l-.436-.749zm-.404.255c-3.791 0-3.693-3.206-3.693-3.206-.098.295-.271.56-.503.77a1.848 1.848 0 01-1.214.474 2.748 2.748 0 01-.634-.078 3.883 3.883 0 000-2.776 6.47 6.47 0 01-.38-2.312 2.129 2.129 0 01-.795.595c-.31.133-.646.193-.983.172-.3.005-.595-.064-.86-.201a1.775 1.775 0 01-.656-.585c2.525-1.036 2.28-4.37 2.28-4.37a1.84 1.84 0 01-.966.263h-.08c-1.408 0-1.877-1.471-1.877-1.471h.028a5.097 5.097 0 002.106-.534 5.025 5.025 0 001.681-1.358c.962-1.207 1.755-2.266 3.313-2.683l.155-.027.033-.153c.042-.236-.122-.463-.47-.694-2.149-1.388-.69-3.16-.69-3.16s.61 1.416 1.99 1.416h.099c.157-.003.314-.018.47-.046l.252-.05a1.985 1.985 0 01.554-2.018 2.899 2.899 0 012.079-.851c.138-.001.277.01.413.033-.47.61-.817 1.628-.267 2.257.469.541 1.633.564 1.633 1.388 0 .342-.324.735-.901 1.091-1.741 1.083-3.468 2.517-4.19 4.436-.897 2.396.116 3.987 1.562 4.903a2.057 2.057 0 01-1.112.463h-.39a3.289 3.289 0 01-2.102-.643 3.609 3.609 0 002.13 2.645 3.64 3.64 0 001.582.287 1.5 1.5 0 01-.573 1.143 2.931 2.931 0 01-1.253.462s1.633.329 1.816 2.706a3.62 3.62 0 00.427 1.735l-.014-.023z" fill="#222220"/><path d="M33.526 12.711c.18.001.36-.027.53-.083.45-.196.833-.517 1.099-.925a4.202 4.202 0 011.332-1.18l.657-.347-.61-.42a2.162 2.162 0 00-1.126-.338 1.9 1.9 0 00-1.365.596 3.17 3.17 0 01-1.826 1.027l-.662.06.273.597c.16.308.404.566.704.746.3.18.643.276.994.276v-.009zm.84-2.364a1.407 1.407 0 011.042-.462c.307.006.606.095.864.259-1.328.698-1.6 1.818-2.347 2.068a1.158 1.158 0 01-.384.064 1.484 1.484 0 01-.747-.208 1.457 1.457 0 01-.535-.555 3.627 3.627 0 002.121-1.16M36.506 17.92a7.259 7.259 0 011.06-4.191 3.72 3.72 0 00-.102 2.123 3.758 3.758 0 001.079 1.84s-2.605-3.075 1.041-6.225C41.04 10.269 42.63 9.529 43.451 9c-2.961.953-4.41-.097-4.41-.097a3.65 3.65 0 002.928.68c-.207.097-.423.204-.653.324-2.501 1.337-4.744 3.539-5.129 6.587v-.023c-.582 2.992-1.877 3.76-1.877 3.76 1.028-.5 1.675-1.827 1.835-2.313.173 2.632 1.473 4.455 2.998 6.212a5.66 5.66 0 011.07 1.795 4.136 4.136 0 00-.84-1.818c-1.407-1.684-2.768-3.779-2.867-6.198M48.115 11.753v.606a.758.758 0 01.62-.203v.87a1.28 1.28 0 01-.17.615h.874a1.304 1.304 0 01-.17-.616v-.87a.766.766 0 01.62.204v-.606h-1.788.014zM47.735 8.169c.138.117.297.206.47.263l.112.051v-.569l-1.037-.43a1.018 1.018 0 00.47.69M50.208 8.169a1.032 1.032 0 00.47-.69l-1.038.43v.57l.108-.051c.173-.057.332-.146.47-.264" fill="#222220"/><path d="M52.08 5.851c0-.864-1.473-1.642-3.101-1.642-1.629 0-3.102.778-3.102 1.643l.033.212.652 3.7-.652.375-1.703.962s-.38.195-.559.31c-.643.463-.779 1.083-.408 1.346a1.25 1.25 0 01.442-.781c.24-.198.545-.302.858-.292a1.707 1.707 0 011.346.722c.092.111.177.229.254.351.098.158.197.296.29.43h-4.34c.366.622.58 1.319.624 2.036v9.482c0 2.312 1.793 3.395 3.754 3.395 1.497 0 1.699-.07 2.53.744.82-.814 1.023-.744 2.524-.744 1.938 0 3.73-1.096 3.73-3.395v-9.492a4.578 4.578 0 01.625-2.035h-4.374c.099-.134.197-.273.291-.43.078-.122.163-.239.254-.351.15-.217.352-.395.585-.52.234-.125.495-.195.761-.202.313-.01.618.095.857.293.24.198.397.475.443.78.376-.264.24-.925-.408-1.346-.174-.12-.554-.31-.554-.31l-1.69-.971-.651-.375.652-3.7.038-.195zm-5.574.426l2.285.763v3.539l-1.699-.865-.586-3.437zm.47 7.516c.306.316.68.563 1.092.722a1.37 1.37 0 00.061.925c.153.309.42.549.747.67.03.26.134.506.3.71.166.204.387.357.638.442l-.671.653-2.618-.042a.467.467 0 01-.207-.19v-.032l.427.07h.028a.17.17 0 00.11-.04.166.166 0 00.06-.1.17.17 0 00-.031-.125.174.174 0 00-.11-.069l-.526-.083.582-1.984-.554-1.147-.887.925-.056 2.063-.615-.102a.17.17 0 00-.197.139.17.17 0 00.03.125.174.174 0 00.11.069l.25.037a.986.986 0 00-.155.097l-.038.05v.061c-.057.258-.037.526.058.773.095.246.26.46.477.615v.074a.334.334 0 00.061.248c.053.072.132.12.22.136h.057c.076 0 .15-.027.208-.074a.328.328 0 00.116-.185c.11.006.222.006.333 0h.07l3.435.61.056-.037c.273-.19 1.32-.925 1.662-1.189.099.086.21.157.328.213a1.369 1.369 0 00.32 1.388h-8.809v-4.996a4.085 4.085 0 00-.314-1.415l3.951-.005zm4.222 4.556c-.347.255-1.243.898-1.567 1.12l-3.12-.555v-.084c.062-.204.1-.415.112-.629l2.623.042.052-.05c.037-.038.873-.833 1.295-1.287.11.137.244.254.394.347-.073.38.006.773.22 1.096h-.009zm-5.204-.527a.79.79 0 00.3.315 3.552 3.552 0 01-.056.56c0 .04 0 .083-.032.124v.065c-.214 0-.426-.032-.63-.097a1.01 1.01 0 01-.425-.43.99.99 0 01-.1-.592c.17-.108.363-.173.563-.19a.399.399 0 01.38.259v-.014zm-.31-.615l.052-1.984.47-.463.281.583-.558 1.9-.244-.036zm5.524 10.278h-.47l.371-1.143c.056-.157-.235-.36-.357-.541.288.169.584.323.887.463 0 .037-.431 1.211-.431 1.211v.01zm1.168-1.305l-.244 1.25c-.155 0-.319.032-.47.036l.259-1.198c.075-.356-.896-.462-1.375-1.17a1.513 1.513 0 01-1.117.338 5.786 5.786 0 01-1.056-.111 1.154 1.154 0 00-.178 0 .39.39 0 00-.361.19l-.07.115-1.324-.305-.328.536a.188.188 0 00.023.24l.09.098c-.088.17-.202.326-.339.462l-.197-.24a.697.697 0 01-.004-.768l.525-.874 1.122.157-.174-.393c-.235-.518.122-1.175.16-1.554 0 .115-.122.139-.244.139h-.324a.137.137 0 00-.075 0l-.305.18-.216-.213a.17.17 0 01.033-.203l.553-.616-.657-.754.939.463.282-.333c.075.074.042.268.042.268.329.082.62.272.826.538.205.267.313.594.305.929v.134a.67.67 0 00.413.291l1.267.125c.25-.076.508-.13.77-.162.226.001.448.067.637.19a.573.573 0 01.3-.098h.043c.568 0 .807.51 1.112.926.23.319.535.795.535.795a.466.466 0 01-.394.208.835.835 0 01-.164 0c-.61-.11-.7-1.346-1.047-1.443h-.056a.19.19 0 00-.16.097c.16.421.066.592.24.925.127.2.286.38.469.532 0 0-.024.18-.052.32l-.014-.047zm-6.828-1.17l.057.143c-.038.125-.47.306-.47.306l-.093-.204a.671.671 0 01.225-.81l.713-.425.756.157a.656.656 0 00.131.412l-.793-.148-.47.324a.198.198 0 00-.041.25l-.015-.005zm6.95 2.364l.216-1.12c0-.065.023-.143.033-.208.063.027.13.047.197.06.075.007.15.007.225 0a.834.834 0 00.652-.319l.17-.19-.137-.208s-.314-.49-.544-.814l-.132-.194a1.512 1.512 0 00-.508-.607 1.544 1.544 0 00-.75-.272h-.06a.976.976 0 00-.277.056 1.53 1.53 0 00-.648-.148 2.034 2.034 0 00-.656.125l-.113.032-1.239-.12a.333.333 0 01-.127-.107l.268-.106c-.075-.879-.939-1.42-1.408-1.605a.498.498 0 00-.14-.25l-.268-.25-.235.278-.117.139-1.736-.703 1.126 1.387-.446.666a.24.24 0 000 .342l.47.315.469-.176h.047c0 .07-.052.352-.075.43l-.826-.162-.869.463c-.19.135-.328.33-.39.553a.999.999 0 00.048.673l.098.208.137.291.305-.125a.913.913 0 00.131.889l.183.226.244.305.272-.286a1.9 1.9 0 00.418-.606l.056-.185-.131-.144v-.027l.15-.24 1.08.249.243.055.132-.212.07-.116c0-.023 0-.028.066-.028h.117c.368.072.742.111 1.117.116a2.2 2.2 0 00.746-.088l.591.75-.366 1.082v.064a1.9 1.9 0 00-1.408.588c-.577-.565-.98-.62-2.529-.62-1.849 0-3.102-1.069-3.102-2.775v-4.163H54.6v4.163c.026.62-.173 1.229-.562 1.717a2.653 2.653 0 01-1.559.947l.02.005zm2.417-13.576c-.19.45-.297.929-.315 1.415v3.113a.941.941 0 01-.513-.298.919.919 0 01-.228-.544v-.143h-.14a1.01 1.01 0 01-.639-.3 1.308 1.308 0 01-.357-.852.915.915 0 00.052 1.041c.182.23.448.379.741.416.042.264.17.508.367.692.196.185.448.301.717.33v1.527h-1.947a1.074 1.074 0 01-.532-.595 1.054 1.054 0 01.03-.793l.075-.166-.174-.065a1.102 1.102 0 01-.622-.54 1.077 1.077 0 01-.068-.815l.038-.139-.131-.06a1.396 1.396 0 01-.557-.591 1.37 1.37 0 01-.128-.797.847.847 0 00-.165.995c-.093.101-.215.231-.352.365a1.095 1.095 0 01-.6-.356 1.07 1.07 0 01-.258-.643v-.13l-.108-.041a1.093 1.093 0 01-.657-.537 1.036 1.036 0 01-.047-.675 2.04 2.04 0 00.568.042c.375-.001.746-.08 1.09-.231.342-.152.649-.372.9-.648l3.96.023zm-3.036-3.16l.77.463.192.111c-.4.107-.761.32-1.047.616l-.033.027c-.065.07-.126.14-.187.213l-.038.046a3.13 3.13 0 00-.169.232l-.028.041c-.066.093-.127.194-.188.296a2.738 2.738 0 01-.899 1.015 2.789 2.789 0 01-1.283.465 2.789 2.789 0 01-1.292-.466 2.737 2.737 0 01-.904-1.023 7.978 7.978 0 00-.183-.291l-.037-.051-.164-.222-.043-.051a4.168 4.168 0 00-.183-.208l-.01-.042a2.274 2.274 0 00-1.046-.61l.197-.111.77-.463.788-.463 2.107 1.17 2.112-1.133.798.44zm-1.033-.924l-1.684.874V7.045l2.285-.763-.6 3.432zM48.97 6.66l-2.5-.976c.21-.495 1.196-.925 2.5-.925 1.305 0 2.29.425 2.506.925l-2.506.976z" fill="#222220"/></svg><svg fill="none" viewBox="0 0 72 72" id="Union" xmlns="http://www.w3.org/2000/svg"><path fill-rule="evenodd" clip-rule="evenodd" d="M40.943 14.694a8.07 8.07 0 01-6.314.198 8.068 8.068 0 01-4.55-4.382l-3.927-9.152A36.166 36.166 0 0136 0c9.616 0 18.656 3.745 25.456 10.544a36.136 36.136 0 016.292 8.448l-1.854.505a8.166 8.166 0 01-8.317-2.563c-3.567-4.176-9.546-5.492-14.538-3.202l-2.096.962zm.927 18.427a11.836 11.836 0 017.967 3.224l17.84 16.793a36.144 36.144 0 01-6.221 8.318C54.656 68.256 45.616 72 36 72a36.67 36.67 0 01-3.633-.18l1.843-6.543a16.083 16.083 0 00-2-13.13l-.45-.693a11.87 11.87 0 01-1.814-8.048 11.87 11.87 0 013.87-7.284 11.817 11.817 0 018.054-3.001zm-13.697 38.03l1.977-7.018c.927-3.29.39-6.82-1.475-9.686l-.45-.693a16.09 16.09 0 01-2.46-10.909 16.09 16.09 0 015.247-9.874 16.056 16.056 0 0110.917-4.068 16.043 16.043 0 0110.799 4.37l16.82 15.834A35.976 35.976 0 0072 36c0-4.564-.845-8.998-2.459-13.125l-2.54.692a12.246 12.246 0 01-3.215.429c-3.565 0-7.042-1.545-9.415-4.322a8.164 8.164 0 00-9.573-2.108l-2.096.962a12.254 12.254 0 01-9.59.3 12.254 12.254 0 01-6.91-6.655l-4.044-9.426a35.743 35.743 0 00-8.729 5.205c7.012 10.65 7.051 24.603-.072 35.326l-7.87 11.848a36.276 36.276 0 005.057 6.33c4.915 4.915 11.001 8.233 17.63 9.695zM10.265 10.83c5.728 9.172 5.64 20.989-.421 30.112l-6.626 9.974A35.893 35.893 0 010 36c0-9.482 3.643-18.403 10.265-25.17z" fill="#17AADF"/></svg><svg fill="none" viewBox="0 0 96 34" id="VtbBankRu" xmlns="http://www.w3.org/2000/svg"><path fill-rule="evenodd" clip-rule="evenodd" d="M7.08 0L5.467 4.356h22.355L29.437 0H7.08zM4.66 6.533l-1.614 4.355h22.356l1.613-4.355H4.66zm-2.416 6.533L.631 17.42h22.356l1.612-4.354H2.244z" fill="#009FDF"/><mask id="fa" maskUnits="userSpaceOnUse" x="34" y="6" width="62" height="28"><path d="M34.172 33.3h61.197V6.615H34.172V33.3z" fill="#fff"/></mask><g mask="url(#fa)"><path fill-rule="evenodd" clip-rule="evenodd" d="M48.158 19.08v.092c1.022.37 1.998 1.016 2.51 1.431 1.579 1.293 2.276 3.001 2.276 5.217 0 3.648-1.952 6.279-5.158 7.11-.976.277-1.997.37-3.904.37h-9.71V6.616h8.596c1.766 0 2.974.092 4.042.37 3.114.83 5.158 2.954 5.158 6.324 0 1.8-.65 3.324-1.719 4.34a6.515 6.515 0 01-2.09 1.43zm-8.596 2.816v7.017h3.718c1.114 0 2.136-.092 2.88-.784.744-.693 1.07-1.57 1.07-2.724 0-.877-.234-1.708-.698-2.308-.79-.97-1.766-1.2-3.438-1.2h-3.532zm-.047-4.616h3.02c.93 0 1.394 0 1.859-.139 1.255-.37 2.045-1.476 2.045-3 0-1.8-.837-2.586-2.045-2.954-.512-.139-1.022-.185-2.045-.185h-2.834v6.278zM61.03 33.3V11.094h-7.76V6.616h21.562l-1.533 4.478h-6.879V33.3h-5.39zm15.474 0V6.616h17.472l-1.533 4.478H81.847v5.909h4.322c3.484 0 5.297.831 6.552 1.892.975.832 2.648 2.678 2.648 6.326 0 3.6-1.72 5.585-3.16 6.601-1.672 1.153-3.438 1.478-7.016 1.478h-8.69zm5.344-4.479h4.043c1.533 0 2.462-.37 3.113-1.2.325-.415.79-1.155.79-2.54 0-1.384-.465-2.354-1.394-3.046-.557-.416-1.301-.646-2.556-.646h-3.996v7.432z" fill="#0A2973"/></g></svg><svg fill="none" viewBox="0 0 349 422" id="header_logo" xmlns="http://www.w3.org/2000/svg"><path d="M255.191 101.268a101.237 101.237 0 01-25.473 67.006 101.438 101.438 0 01-63.488 33.391 101.481 101.481 0 01-69.718-16.94 101.298 101.298 0 01-41.042-58.79v76.601H1V0h54.47v76.6a101.344 101.344 0 0133.057-52.802A101.524 101.524 0 01146.252.272v54.775a46.89 46.89 0 00-28.193 15.878 46.798 46.798 0 00-11.173 30.343 46.8 46.8 0 0011.173 30.343 46.891 46.891 0 0028.193 15.877c.61.123 1.227.213 1.846.272 1.09 0 2.209.242 3.329.303h2.39a46.927 46.927 0 0033.145-13.702 46.83 46.83 0 0013.76-33.093v-1.512h54.469v1.512z" fill="#101F30"/><path d="M349 101.268v101.268h-54.47V101.268a46.831 46.831 0 00-13.203-33.353 46.932 46.932 0 00-32.944-14.258 46.936 46.936 0 00-33.388 13.19 46.836 46.836 0 00-14.273 32.91v1.511a46.832 46.832 0 01-13.738 33.132 46.93 46.93 0 01-33.167 13.723 44.5 44.5 0 01-7.565-.635v-46.22a101.216 101.216 0 0129.692-71.607A101.427 101.427 0 01247.626 0c26.886 0 52.671 10.67 71.682 29.66A101.212 101.212 0 01349 101.269z" fill="#17AADF"/><path fill-rule="evenodd" clip-rule="evenodd" d="M335.746 340.774v-26.39h9.35v26.511l-9.35-.121zm-15.524.786c-8.796 0-13.204-3.769-13.224-11.306v-15.87h9.29v8.404a9.428 9.428 0 012.754-1.119 16.26 16.26 0 014.024-.423 11.233 11.233 0 017.777 2.207 9.237 9.237 0 012.815 7.315 9.339 9.339 0 01-3.632 7.951 15.683 15.683 0 01-9.804 2.871v-.03zm3.026-13.301a3.699 3.699 0 00-2.845-1.028 5.406 5.406 0 00-2.36.484 4.087 4.087 0 00-1.604 1.33v2.025a4.469 4.469 0 00.969 3.023 3.77 3.77 0 003.026 1.089 3.546 3.546 0 003.026-1.119 4.344 4.344 0 00.998-3.023 3.833 3.833 0 00-1.361-2.781h.151zm-27.235 11.245a13.223 13.223 0 01-6.809 1.693 9.36 9.36 0 01-7.171-2.781v11.82h-9.502v-22.612a13.916 13.916 0 011.876-7.255 12.467 12.467 0 015.296-4.836 17.456 17.456 0 017.988-1.693c2.63-.068 5.236.502 7.596 1.662a11.653 11.653 0 014.993 4.746 14.776 14.776 0 011.725 7.255 15.32 15.32 0 01-1.604 7.225 11.609 11.609 0 01-4.569 4.776h.181zm-4.539-16.565a5.602 5.602 0 00-8.08 0 6.77 6.77 0 00-1.513 4.564 6.676 6.676 0 001.513 4.595 5.054 5.054 0 004.025 1.723 5.14 5.14 0 004.055-1.723 6.7 6.7 0 001.543-4.595 6.617 6.617 0 00-1.724-4.564h.181zm-35.95 11.185a9.112 9.112 0 003.299-.544c1.039-.423 2-1.015 2.844-1.754l4.842 5.079a14.171 14.171 0 01-11.318 4.292 18.164 18.164 0 01-8.2-1.753 13.365 13.365 0 01-7.45-11.86 13.352 13.352 0 017.238-11.991 16.894 16.894 0 0114.616-.181 12.341 12.341 0 015.144 4.655 13.389 13.389 0 011.907 7.255l-19.004 3.628a6.051 6.051 0 005.901 3.174h.181zm4.025-10.036a5.087 5.087 0 00-1.876-2.661 6.064 6.064 0 00-3.681-.948 6.05 6.05 0 00-3.521 1.432 6.285 6.285 0 00-1.725 4.293l10.803-2.116zm0-12.939a3.932 3.932 0 01-2.784-1.058 3.66 3.66 0 01-1.09-2.75 3.819 3.819 0 011.09-2.812 4.178 4.178 0 015.568 0 3.81 3.81 0 011.089 2.812 3.65 3.65 0 01-1.089 2.75 3.936 3.936 0 01-3.117 1.058h.333zm-10.41 0a3.876 3.876 0 01-2.754-1.058 3.567 3.567 0 01-1.119-2.75 3.714 3.714 0 011.119-2.812 4.149 4.149 0 015.538 0 3.819 3.819 0 011.09 2.812 3.667 3.667 0 01-1.09 2.75 3.873 3.873 0 01-3.117 1.058h.333zm-24.209 20.314h-9.804v9.311h-9.26v-26.39h9.26v9.824h9.562v-9.824h9.321v26.511h-9.321l.242-9.432zm-35.102-4.353a6.524 6.524 0 00-1.059-4.08 3.63 3.63 0 00-3.026-1.331 4.276 4.276 0 00-3.39 1.451 6.741 6.741 0 00-1.271 4.474v13.15h-9.259V327.11c0-3.597-1.362-5.411-4.025-5.411a4.368 4.368 0 00-3.45 1.451 6.741 6.741 0 00-1.271 4.474v13.15h-9.32v-26.39h8.866v2.781a9.739 9.739 0 013.511-2.418c1.422-.53 2.93-.796 4.448-.786a11.409 11.409 0 014.993 1.028 8.503 8.503 0 013.601 3.022 10.283 10.283 0 013.964-3.022 12.6 12.6 0 015.266-1.058 10.45 10.45 0 017.807 3.022 12.084 12.084 0 013.026 8.827v15.115h-9.411V327.11zm.242-36.909a13.444 13.444 0 01-6.809 1.692 9.342 9.342 0 01-7.172-2.811v11.85h-9.32V278.29a13.808 13.808 0 011.876-7.225 12.283 12.283 0 015.296-4.836 17.66 17.66 0 017.989-1.723 16.465 16.465 0 017.625 1.662 11.649 11.649 0 015.115 4.777 14.624 14.624 0 011.755 7.255 15.106 15.106 0 01-1.755 7.194 11.318 11.318 0 01-4.6 4.807zm-4.479-16.566a5.477 5.477 0 00-6.221-1.301 5.477 5.477 0 00-1.828 1.301 6.554 6.554 0 00-1.604 4.474 6.772 6.772 0 001.513 4.595 5.069 5.069 0 004.055 1.693 5.143 5.143 0 004.085-1.633 7.402 7.402 0 000-9.069v-.06zm-36.01 11.155a9.295 9.295 0 003.329-.635 9.962 9.962 0 002.814-1.754l4.842 5.079a14.202 14.202 0 01-11.288 4.413 18.174 18.174 0 01-8.17-1.692 13.01 13.01 0 01-5.477-4.867 13.92 13.92 0 010-14.117c1.28-2.07 3.1-3.753 5.265-4.867a16.836 16.836 0 0114.646 0 12.541 12.541 0 015.114 4.625 13.507 13.507 0 011.907 7.255l-18.974 3.627a6.053 6.053 0 005.992 2.933zm4.025-10.006a5.113 5.113 0 00-1.846-2.691 5.543 5.543 0 00-3.299-.997 5.407 5.407 0 00-2.12.358 5.407 5.407 0 00-1.814 1.153 6.56 6.56 0 00-1.725 4.262l10.804-2.085zm-12.105 40.718a11.832 11.832 0 014.993 4.746 14.776 14.776 0 011.725 7.255 15.693 15.693 0 01-1.604 7.225 11.609 11.609 0 01-4.569 4.776 13.253 13.253 0 01-6.839 1.693 9.334 9.334 0 01-7.111-2.63v11.82h-9.351v-22.611a13.918 13.918 0 011.846-7.255 12.64 12.64 0 015.296-4.837 17.694 17.694 0 018.019-1.693 16.275 16.275 0 017.595 1.511zm-8.049 5.714a5.15 5.15 0 00-4.025 1.723 6.765 6.765 0 00-1.513 4.564 6.679 6.679 0 001.483 4.595 5.117 5.117 0 004.055 1.723 5.214 5.214 0 004.055-1.723 6.705 6.705 0 001.543-4.595 6.614 6.614 0 00-1.543-4.564 5.214 5.214 0 00-4.055-1.723zm-3.359-37.757a6.494 6.494 0 01-1.816 4.595 11.824 11.824 0 01-5.023 3.023 23.45 23.45 0 01-7.081.998 30.494 30.494 0 01-12.104-2.298l2.42-6.257a23.96 23.96 0 009.351 1.753 7.975 7.975 0 003.51-.635 1.962 1.962 0 001.301-1.813 1.717 1.717 0 00-.786-1.572 4.878 4.878 0 00-2.391-.484h-5.719v-5.502h4.902c2.209 0 3.298-.665 3.298-2.025 0-1.36-1.452-2.086-4.357-2.086a23.867 23.867 0 00-8.443 1.753l-2.209-6.045a29.487 29.487 0 0111.408-2.388 19.722 19.722 0 019.321 1.964 6.053 6.053 0 013.692 5.623 5.618 5.618 0 01-1.09 3.325 7.74 7.74 0 01-3.026 2.449 7.348 7.348 0 013.541 2.207 5.256 5.256 0 011.301 3.415zm-17.733 30.925v26.511h-8.897v-2.66a9.621 9.621 0 01-7.837 3.023 12.845 12.845 0 01-6.597-1.693 12.433 12.433 0 01-4.72-4.807 16.003 16.003 0 010-14.449 12.282 12.282 0 014.72-4.746 13.119 13.119 0 016.597-1.663 9.99 9.99 0 017.414 2.721v-2.237h9.32zm-10.743 8.615a5.685 5.685 0 00-4.024-1.666 5.693 5.693 0 00-4.025 1.666 6.323 6.323 0 00-1.574 4.595 6.464 6.464 0 001.574 4.655 5.615 5.615 0 004.025 1.692 5.625 5.625 0 004.024-1.692 6.613 6.613 0 001.574-4.655 6.464 6.464 0 00-1.574-4.716v.121zm-11.075-34.401a9.56 9.56 0 01-3.54 2.449c-1.387.553-2.865.84-4.358.846a11.138 11.138 0 01-8.231-3.022 12.093 12.093 0 01-3.026-9.069v-14.813h9.32v13.12a6.766 6.766 0 001.12 4.353 3.957 3.957 0 003.298 1.39 4.657 4.657 0 003.632-1.42 6.798 6.798 0 001.391-4.716v-12.757h9.32v26.481h-8.926v-2.842zm-5.447-26.208a10.238 10.238 0 01-6.96-1.965 7.892 7.892 0 01-2.27-6.046h6.053c-.034.92.243 1.825.786 2.569a3.019 3.019 0 002.36.847 3.032 3.032 0 002.422-.877c.582-.713.874-1.62.817-2.539h6.052a7.675 7.675 0 01-2.3 6.046 10.482 10.482 0 01-6.96 1.965zm-29.232 26.42a9.723 9.723 0 01-7.868 3.023 13.237 13.237 0 01-6.597-1.632 12.101 12.101 0 01-4.69-4.837 15.677 15.677 0 010-14.419 12.096 12.096 0 014.69-4.777 13.206 13.206 0 016.597-1.662 9.837 9.837 0 017.414 2.751v-2.298h9.32v26.481h-8.866v-2.63zm-1.876-15.266a5.693 5.693 0 00-8.05 0 6.497 6.497 0 00-1.573 4.565 6.736 6.736 0 001.573 4.685 5.682 5.682 0 004.025 1.667 5.693 5.693 0 004.025-1.667 6.615 6.615 0 001.483-4.685 6.376 6.376 0 00-1.483-4.565zM22.939 291.44l-7.807-13.089h-4.418v13.089H1v-34.22h9.714v13.301h4.66l8.2-13.301h10.198L23.03 273.756l10.833 17.684H22.94zM10.32 327.715a6.765 6.765 0 001.12 4.353 4.023 4.023 0 003.299 1.36 4.634 4.634 0 003.6-1.541 6.799 6.799 0 001.393-4.716v-12.787h9.32v26.511h-8.867v-2.842a10.038 10.038 0 01-3.54 2.449 11.626 11.626 0 01-4.358.816 11.172 11.172 0 01-8.23-3.023 12.327 12.327 0 01-3.027-9.068v-14.843h9.29v13.331zm66.574 13.21h-9.108v-19.286h-9.078v19.135h-9.14v-26.39h27.478l-.152 26.541zM129.578 400.447v-3.023h-3.026l-2.088 3.023h-1.846l2.452-3.235a3.211 3.211 0 01-1.635-1.088 2.81 2.81 0 01-.574-1.844 3.016 3.016 0 011.089-2.479 5.168 5.168 0 013.026-.846h4.146v9.492h-1.544zm0-7.981h-2.541c-1.665 0-2.482.635-2.482 1.874a1.576 1.576 0 00.605 1.391 3.029 3.029 0 001.786.453h2.632v-3.718zm-11.015 6.56a4.327 4.327 0 01-1.452 1.209c-.61.269-1.27.403-1.937.393a5.119 5.119 0 01-2.481-.605 4.414 4.414 0 01-1.725-1.693 5.427 5.427 0 01-.605-2.539 5.137 5.137 0 01.605-2.509 4.727 4.727 0 011.725-1.723 5.107 5.107 0 012.481-.604 4.818 4.818 0 011.876.393 3.302 3.302 0 011.423 1.148v-1.451h1.725v9.492h-1.635v-1.511zm-.484-4.988a3.019 3.019 0 00-1.119-1.149 3.028 3.028 0 00-1.634-.423 3.04 3.04 0 00-1.665.423 3.206 3.206 0 00-1.15 1.149 3.842 3.842 0 000 3.506c.286.478.68.881 1.15 1.179a3.297 3.297 0 001.665.393 3.419 3.419 0 001.634-.393c.468-.29.854-.696 1.119-1.179a3.83 3.83 0 000-3.506zm-10.319 6.499l-3.177-4.02h-1.997v4.02h-1.725v-9.492h1.725v4.021h2.027l3.026-4.021h1.846l-3.601 4.565 4.055 4.837-2.179.09zm-14.676-1.814c.538.25 1.133.355 1.725.303a3.03 3.03 0 001.483-.333c.459-.221.847-.567 1.12-.997l1.3.816a3.99 3.99 0 01-1.573 1.511 5.143 5.143 0 01-2.3.514 5.262 5.262 0 01-2.602-.635 4.443 4.443 0 01-1.786-1.723 4.8 4.8 0 01-.635-2.479 4.985 4.985 0 01.635-2.509 4.568 4.568 0 011.786-1.692 5.262 5.262 0 012.602-.635 5.143 5.143 0 012.3.514 3.78 3.78 0 011.573 1.511l-1.3.847a3.02 3.02 0 00-1.12-1.028 3.457 3.457 0 00-1.483-.333 3.276 3.276 0 00-2.845 1.572 3.838 3.838 0 000 3.507c.259.487.646.895 1.12 1.179v.09zm.363 23.247h-1.664v-3.023h-3.026l-2.089 3.023h-1.845l2.3-3.235a3.025 3.025 0 01-1.635-1.058 3.322 3.322 0 01.515-4.323 4.995 4.995 0 013.026-.846h4.146l.272 9.462zm-1.664-8.071h-2.421c-1.665 0-2.482.634-2.482 1.874a1.63 1.63 0 00.606 1.42 3.027 3.027 0 001.785.454h2.512v-3.748zm-10.047-15.387a3.731 3.731 0 002.058.514 3.515 3.515 0 002.724-1.119l.937 1.089c-.422.505-.962.9-1.573 1.148a5.449 5.449 0 01-2.149.393 5.757 5.757 0 01-2.663-.604 4.538 4.538 0 01-1.815-1.723 4.987 4.987 0 01-.636-2.51c-.007-.863.2-1.715.605-2.478a4.288 4.288 0 011.725-1.723 4.786 4.786 0 012.451-.635c.812 0 1.612.197 2.33.574.711.383 1.3.96 1.695 1.663a4.59 4.59 0 01.636 2.418l-7.535 1.451a3.027 3.027 0 001.331 1.542h-.121zm4.63-3.87a3.023 3.023 0 00-1.029-1.692 3.025 3.025 0 00-1.937-.635 3.023 3.023 0 00-1.604.423 3.02 3.02 0 00-1.12 1.149 3.44 3.44 0 00-.392 1.723v.181l6.082-1.149zm-5.72 22.672v-4.897h1.725v9.462h-1.634v-1.421a3.628 3.628 0 01-1.392 1.119 4.582 4.582 0 01-2.513.383 4.581 4.581 0 01-2.328-1.018 4.078 4.078 0 01-1.09-3.023v-5.441h1.725v5.229a2.841 2.841 0 00.666 2.086 2.364 2.364 0 001.876.726 3.036 3.036 0 002.179-.816 3.328 3.328 0 00.908-2.389h-.121zm-6.052-20.707a7.171 7.171 0 01-3.026.726 4.152 4.152 0 01-2.753-.816 3.023 3.023 0 01-.969-2.479v-3.023h1.725v3.023a1.813 1.813 0 00.605 1.481 2.76 2.76 0 001.755.514 6.803 6.803 0 002.694-.635v-4.323h1.725v9.492h-1.725l-.03-3.96zm-10.833 2.389a3.69 3.69 0 01-1.392 1.148 4.2 4.2 0 01-1.846.393 3.683 3.683 0 01-3.04-1.066 3.681 3.681 0 01-1.045-3.045v-5.471h1.725v5.259c-.047.754.19 1.498.666 2.086a2.458 2.458 0 001.876.696 2.823 2.823 0 002.148-.817 3.008 3.008 0 00.817-2.327v-4.897h1.695v9.492H63.76v-1.451zm-5.447 13.421v9.462H56.65v-1.511a3.727 3.727 0 01-1.453 1.209 4.544 4.544 0 01-1.937.423 4.878 4.878 0 01-2.48-.635 4.14 4.14 0 01-1.696-1.693 5.343 5.343 0 010-5.048 4.146 4.146 0 011.695-1.693 4.874 4.874 0 012.481-.604 4.717 4.717 0 011.877.362c.57.259 1.07.654 1.452 1.149v-1.421h1.725zm-2.118 3.023a3.027 3.027 0 00-1.15-1.179 3.371 3.371 0 00-3.268 0 3.028 3.028 0 00-1.15 1.179 3.234 3.234 0 00-.424 1.723 3.356 3.356 0 00.424 1.754c.267.491.665.899 1.15 1.179a3.371 3.371 0 003.268 0c.485-.28.883-.688 1.15-1.179.275-.543.41-1.146.393-1.754a3.533 3.533 0 00-.393-1.753v.03zm-7.777-11.396a8.783 8.783 0 01-2.542-.363 5.23 5.23 0 01-1.997-1.058l.847-1.33c.47.419 1.029.729 1.634.907a6.47 6.47 0 002.028.332 3.451 3.451 0 002.45-.786 3.019 3.019 0 00.787-2.388v-.755a3.79 3.79 0 01-1.482 1.088c-.61.268-1.27.403-1.937.393a5.098 5.098 0 01-2.451-.605 3.84 3.84 0 01-1.725-1.602 4.62 4.62 0 01-.636-2.388 4.468 4.468 0 01.636-2.388c.4-.703 1-1.271 1.725-1.633a5.43 5.43 0 012.451-.574 5.342 5.342 0 011.997.393c.6.252 1.123.659 1.513 1.179v-1.481h1.634v8.041a4.738 4.738 0 01-1.24 3.657 5.032 5.032 0 01-3.692 1.331v.03zm2.33-10.792a3.237 3.237 0 00-2.33-.846 3.387 3.387 0 00-2.39.846 3.013 3.013 0 00-.909 2.237c.001.561.147 1.113.424 1.602.288.462.696.838 1.18 1.088a3.42 3.42 0 001.695.393 3.384 3.384 0 001.664-.393c.485-.25.892-.626 1.18-1.088a3.265 3.265 0 00.424-1.602 2.839 2.839 0 00-.938-2.267v.03zm-11.409 5.774c-.361.492-.84.887-1.392 1.148a4.752 4.752 0 01-4.841-.634 4.172 4.172 0 01-1.09-3.023v-5.472h1.725v5.26c-.046.754.191 1.498.666 2.086a2.492 2.492 0 001.906.695 3.026 3.026 0 002.149-.816 3.293 3.293 0 00.787-2.328v-4.897h1.725v9.492H39.34v-1.511zm-5.477 22.883H32.32v-6.922l-3.57 5.864h-.757l-3.51-5.864v6.922h-1.574v-9.461h1.785l3.722 6.378 3.844-6.378h1.603v9.461zm-6.324-21.976a4.875 4.875 0 01-2.421.604 4.531 4.531 0 01-1.937-.393 3.42 3.42 0 01-1.422-1.118v4.867h-1.755v-8.162a5.108 5.108 0 01.635-2.54 4.725 4.725 0 011.725-1.723 5.486 5.486 0 012.572-.604 5.278 5.278 0 012.542.604 4.517 4.517 0 011.725 1.723c.4.775.597 1.638.575 2.509a5.32 5.32 0 01-.575 2.54 4.09 4.09 0 01-1.664 1.693zm.151-6.046a3.021 3.021 0 00-1.15-1.179 3.303 3.303 0 00-1.634-.423 3.019 3.019 0 00-2.3.906 3.33 3.33 0 00-.877 2.419c-.017.608.118 1.21.393 1.753a3.2 3.2 0 001.12 1.179c.51.275 1.084.41 1.664.393a3.267 3.267 0 001.634-.393 3.292 3.292 0 001.15-1.179c.314-.502.5-1.072.545-1.663a3.628 3.628 0 00-.545-1.723v-.09zm-7.898 25.664a4.801 4.801 0 01-1.755 1.723 5.108 5.108 0 01-2.542.635 5.02 5.02 0 01-2.542-.635 4.654 4.654 0 01-1.785-1.723 5.22 5.22 0 010-4.987 4.655 4.655 0 011.936-1.633 5.352 5.352 0 012.542-.604c.884-.008 1.756.2 2.542.604a4.817 4.817 0 011.755 1.723 5.227 5.227 0 010 4.988l-.151-.091zm-1.513-4.232a3.035 3.035 0 00-1.15-1.179 3.36 3.36 0 00-3.268 0c-.485.28-.883.688-1.15 1.179a3.233 3.233 0 00-.424 1.723 3.355 3.355 0 00.424 1.754c.267.491.665.899 1.15 1.179a3.36 3.36 0 003.268 0c.485-.28.883-.688 1.15-1.179.275-.543.41-1.146.393-1.754a3.535 3.535 0 00-.393-1.632v-.091zm-3.601-15.658c-1 .552-2.126.834-3.268.816a6.412 6.412 0 01-3.026-.726 5.864 5.864 0 01-2.27-2.025 6.287 6.287 0 01-.999-3.023h-2.33v5.562H1V387.75h1.785v5.351h2.3a6.345 6.345 0 013.299-4.807 6.767 6.767 0 013.026-.695 6.547 6.547 0 013.268.816 6.05 6.05 0 012.27 2.298 6.766 6.766 0 010 6.559 6.045 6.045 0 01-2.27 2.479v-.09zm.726-8.041a4.257 4.257 0 00-1.664-1.693 4.6 4.6 0 00-4.66 0 4.41 4.41 0 00-1.634 1.693 5.312 5.312 0 000 4.927 4.72 4.72 0 001.634 1.723 4.787 4.787 0 004.66 0 4.566 4.566 0 001.664-1.723 5.319 5.319 0 000-4.927zm-12.68 24.788h2.028l3.026-3.991h1.846l-3.6 4.535 4.054 4.927H7.9l-3.026-3.99H2.725v3.99H1v-9.462h1.725v3.991zm43.304 5.471h-1.725v-7.98h-5.356v7.98h-1.634v-9.462h8.806l-.09 9.462zm17.31-5.441h5.416v-4.021H70.6v9.462h-1.695v-3.96h-5.568v3.96h-1.815v-9.462h1.725l.09 4.021z" fill="#101F30"/></svg><svg viewBox="0 0 31 30" id="iconStat" xmlns="http://www.w3.org/2000/svg"><path d="M30.488 11.935a.894.894 0 00-.723-.609l-9.464-1.375-4.233-8.577a.894.894 0 00-1.604 0L10.23 9.951.766 11.326a.894.894 0 00-.496 1.526l6.849 6.676-1.617 9.426a.894.894 0 001.298.943l8.466-4.45 8.465 4.45a.895.895 0 001.298-.943l-1.617-9.426 6.85-6.676a.894.894 0 00.226-.917z" fill="#17AADF"/></svg><svg fill="#17AADF" viewBox="0 0 53 53" id="l_icon" xmlns="http://www.w3.org/2000/svg"><path fill-rule="evenodd" clip-rule="evenodd" d="M21.838 0h-3.105v2.989h3.105V0zm6.21 0h-3.104v2.989h3.105V0zm3.106 0h3.104v2.989h-3.104V0zm-12.42 42.697V31.862c2.292 1.332 4.922 2.15 7.762 2.15s5.47-.819 7.762-2.15v10.837l-7.757-3.866-7.768 3.864zM46.502 30.51c.22-1.193.343-2.476.401-3.816 3.875-1.695 4.906-3.7 5.344-4.634 1.236-2.642.915-5.59-.716-9.447-5.908 1.815-7.21 4.42-7.726 5.524-1.022 2.185-.926 4.611.041 7.555-.03 2.53-.409 4.743-1.029 6.718-1.527 1.366-2.495 3.292-3.048 5.913-1.574 2.07-3.58 3.755-5.606 5.19-1.907.404-3.715 1.544-5.593 3.384l-1.117.598-.004.002h-.002c-.341.182-.66.352-.952.51l-.858-.459-.005-.002-.001-.001-.004-.002-.005-.002v-.001l-.004-.002c-.346-.184-.727-.387-1.128-.603-2.389-2.335-4.308-3.184-5.663-3.473-2.255-1.63-4.164-3.374-5.597-5.254-.763-3.46-2.083-5.054-3.048-5.887-.64-2.045-.965-4.26-.989-6.673 1.401-4.361.45-6.54-.005-7.51-1.237-2.643-3.712-4.292-7.726-5.525-2.4 5.675-1.232 8.343-.715 9.447.966 2.064 2.72 3.512 5.343 4.64.056 1.336.198 2.623.428 3.858-1.828-.4-3.93-.324-6.519.264.77 6.11 3.122 7.838 4.124 8.537 2.384 1.661 5.183 1.67 7.122 1.409.884 1.076 2.017 2.098 3.137 3.09-1.838.682-3.609 1.993-5.496 4.069 4.15 4.564 7.071 4.74 8.294 4.74 2.218 0 4.22-.994 6.286-2.771 1.385.754 2.856 1.552 3.03 1.644.079-.042 1.573-.848 3.06-1.657 3.063 2.59 5.247 2.785 6.257 2.785 2.927 0 5.474-1.64 8.295-4.741-2.149-2.363-3.96-3.51-5.385-4.08 1.05-.928 2.154-1.95 3.075-3.082 1.946.248 4.726.226 7.07-1.406 2.397-1.673 3.599-4.386 4.123-8.537-2.914-.66-4.996-.611-6.49-.312zM27.912 15.46c.084.938.137 1.963.137 3.092 0 1.13-.053 2.155-.137 3.092H25.08a34.775 34.775 0 01-.136-3.092c0-1.129.053-2.154.136-3.092h2.832zm11.004 3.092c0-1.074-.181-2.098-.441-3.092h-7.463c.127 1.516.142 2.725.142 3.092 0 .368-.015 1.577-.142 3.092h7.463c.26-.994.441-2.018.441-3.092zm-12.42 9.012c-.303-.49-.662-1.455-.96-2.828h1.92c-.297 1.373-.657 2.338-.96 2.828zM15.804 12.37h6.58c.568-3.102 1.727-6.288 4.112-6.288s3.544 3.186 4.112 6.288h6.58c-2.155-3.68-6.116-6.288-10.692-6.288-4.576 0-8.538 2.609-10.692 6.288zm21.384 12.367h-6.58c-.568 3.102-1.727 6.185-4.112 6.185s-3.544-3.083-4.112-6.185h-6.58c2.154 3.68 6.116 6.185 10.692 6.185 4.576 0 8.537-2.506 10.692-6.185zm-23.216-6.184c0 1.074.182 2.098.442 3.092h7.566a39.592 39.592 0 01-.142-3.092c0-.367.015-1.576.142-3.092h-7.566c-.26.994-.441 2.019-.441 3.092zm12.524-9.114c.303.49.663 1.558.96 2.93h-1.92c.297-1.372.657-2.44.96-2.93z"/></svg><svg fill="#17AADF" viewBox="0 0 53 49" id="law_icon" xmlns="http://www.w3.org/2000/svg"><path fill-rule="evenodd" clip-rule="evenodd" d="M42.679 12.722a1.562 1.562 0 001.67-.434c1.682-1.886 2.131-4.503 1.202-7-.886-2.38-2.93-4.325-5.468-5.203a1.557 1.557 0 00-1.67.435c-1.682 1.886-2.132 4.503-1.202 7 .885 2.38 2.93 4.324 5.468 5.202zm.376 4.944c-.428 2.503.366 5.205 2.123 7.229a1.556 1.556 0 001.665.456c2.404-.797 4.106-2.839 4.555-5.464.429-2.502-.365-5.204-2.123-7.228a1.556 1.556 0 00-1.665-.456c-2.403.797-4.106 2.84-4.555 5.463zm8.567 9.047a1.55 1.55 0 011.212 1.223c.506 2.628-.163 5.363-1.79 7.317-1.397 1.679-3.328 2.6-5.343 2.6-.446 0-.896-.045-1.345-.136a1.55 1.55 0 01-1.213-1.224c-.506-2.628.164-5.363 1.79-7.317 1.707-2.05 4.207-2.97 6.689-2.463zM47.075 41.04c-1.894-1.675-4.521-2.123-7.028-1.197-2.39.882-4.343 2.918-5.224 5.446a1.542 1.542 0 00.436 1.663 6.643 6.643 0 004.438 1.67c.855 0 1.73-.156 2.59-.473 2.39-.882 4.344-2.918 5.225-5.446a1.542 1.542 0 00-.437-1.663zM10.321 12.722a1.562 1.562 0 01-1.67-.434c-1.682-1.886-2.131-4.503-1.202-7 .886-2.38 2.93-4.325 5.468-5.202a1.558 1.558 0 011.67.434C16.27 2.406 16.72 5.023 15.79 7.52c-.885 2.38-2.93 4.325-5.468 5.203zM6.157 25.35a1.561 1.561 0 001.664-.455c1.758-2.024 2.552-4.726 2.124-7.228-.45-2.625-2.152-4.667-4.555-5.464a1.557 1.557 0 00-1.665.456c-1.757 2.024-2.552 4.726-2.123 7.228.448 2.625 2.151 4.667 4.555 5.463zm3.7 11.143a1.549 1.549 0 01-1.213 1.223 6.68 6.68 0 01-1.345.137c-2.015 0-3.945-.921-5.343-2.6-1.627-1.954-2.296-4.69-1.79-7.317a1.549 1.549 0 011.212-1.223c2.481-.508 4.982.413 6.689 2.462 1.626 1.954 2.296 4.69 1.79 7.318zm3.096 3.35c-2.507-.926-5.134-.478-7.028 1.196a1.542 1.542 0 00-.437 1.664c.881 2.528 2.834 4.564 5.225 5.445.86.318 1.735.474 2.59.474 1.634 0 3.194-.57 4.438-1.67.47-.415.642-1.072.436-1.663-.88-2.529-2.834-4.564-5.224-5.446zm1.402-12.234h6.212a1.55 1.55 0 011.552 1.546c0 2.501-2.043 4.535-4.555 4.535h-.206c-2.512 0-4.555-2.034-4.555-4.535a1.55 1.55 0 011.552-1.546zm16.2 7.962h-2.277V19.285h5.095l-1.823 5.232h3.196l.773-2.46.752 2.46h3.186L37 17.212a1.568 1.568 0 00-.393-.583 1.556 1.556 0 00-1.081-.438h-7.247v-3.35a1.55 1.55 0 00-1.552-1.546 1.55 1.55 0 00-1.553 1.546v3.35h-7.66c-.248 0-.481.06-.689.162-.359.163-.65.46-.8.84l-2.552 7.323h3.196l.773-2.46.752 2.46h3.186l-1.76-5.232h5.554v16.288h-2.277a1.55 1.55 0 00-1.553 1.546 1.55 1.55 0 001.553 1.546h7.66a1.55 1.55 0 001.552-1.546 1.55 1.55 0 00-1.552-1.547zm9.642-6.416c0 2.501-2.043 4.535-4.555 4.535h-.206c-2.512 0-4.555-2.034-4.555-4.535a1.55 1.55 0 011.553-1.546h6.21a1.55 1.55 0 011.553 1.546z"/></svg><svg fill="none" viewBox="0 0 167 35" id="logo" xmlns="http://www.w3.org/2000/svg"><path d="M44.113 17.5a17.452 17.452 0 01-4.42 11.58 17.628 17.628 0 01-11.018 5.77 17.67 17.67 0 01-12.1-2.928 17.506 17.506 0 01-7.122-10.16V35H0V0h9.453v13.237a17.504 17.504 0 015.737-9.125A17.659 17.659 0 0125.208.047v9.466a8.145 8.145 0 00-4.893 2.744 8.066 8.066 0 00-1.94 5.243c0 1.921.688 3.78 1.94 5.244a8.145 8.145 0 004.893 2.743c.105.021.212.037.32.047.189 0 .383.042.578.053h.414a8.162 8.162 0 005.753-2.368A8.075 8.075 0 0034.66 17.5v-.261h9.453v.261z" fill="#fff"/><path d="M60.393 17.5V35H50.94V17.5a8.075 8.075 0 00-2.291-5.764 8.162 8.162 0 00-5.717-2.464 8.164 8.164 0 00-5.795 2.28 8.078 8.078 0 00-2.477 5.687v.261a8.075 8.075 0 01-2.384 5.726 8.162 8.162 0 01-5.756 2.371c-.44 0-.879-.036-1.312-.11V17.5c0-4.641 1.853-9.092 5.152-12.374A17.64 17.64 0 0142.8 0a17.64 17.64 0 0112.44 5.126A17.453 17.453 0 0160.393 17.5z" fill="#17AADF"/><path fill-rule="evenodd" clip-rule="evenodd" d="M164.416 23.91v-7.314H167v7.314h-2.584zm-4.317.214c-2.45 0-3.676-1.045-3.676-3.134V16.59h2.574v2.32c.236-.146.495-.25.766-.309a4.496 4.496 0 011.114-.12 3.114 3.114 0 012.132.68 2.553 2.553 0 01.777 2.02 2.586 2.586 0 01-.998 2.194 4.438 4.438 0 01-2.689.748zm.804-3.657a1.054 1.054 0 00-.788-.282 1.432 1.432 0 00-.651.136c-.18.078-.336.203-.452.36v.57c-.017.301.08.598.273.83a1.061 1.061 0 00.814.303 1.013 1.013 0 00.804-.308c.19-.232.288-.526.273-.825a1.081 1.081 0 00-.273-.8v.016zm-7.562 3.135a3.768 3.768 0 01-1.891.464 2.584 2.584 0 01-1.985-.767v3.264h-2.589v-6.268c-.013-.7.169-1.391.525-1.996a3.473 3.473 0 011.471-1.337 4.94 4.94 0 012.216-.47 4.55 4.55 0 012.1.46 3.25 3.25 0 011.382 1.31c.331.617.497 1.308.483 2.007a4.23 4.23 0 01-.452 1.99c-.283.547-.719 1-1.255 1.306l-.005.037zm-1.255-4.577a1.424 1.424 0 00-1.124-.48 1.417 1.417 0 00-1.119.48 2.125 2.125 0 000 2.529 1.424 1.424 0 001.124.475 1.455 1.455 0 001.124-.48 2.085 2.085 0 000-2.524h-.005zm-9.978 3.083c.311.007.62-.043.913-.147.288-.115.552-.28.783-.486l1.349 1.4c-.7.794-1.75 1.191-3.15 1.191a5.067 5.067 0 01-2.274-.485 3.666 3.666 0 01-2.137-3.3 3.64 3.64 0 01.564-1.966 3.667 3.667 0 011.536-1.358 4.44 4.44 0 012.1-.486 4.395 4.395 0 011.97.439 3.46 3.46 0 011.423 1.28c.362.605.544 1.3.525 2.005l-5.251.998c.155.294.396.535.691.692.295.156.63.221.963.186l-.005.037zm1.113-2.77a1.395 1.395 0 00-.525-.736 1.535 1.535 0 00-.904-.318 1.494 1.494 0 00-1.087.407 1.76 1.76 0 00-.478 1.18l2.994-.532zm-.042-3.578a1.055 1.055 0 01-.767-.287.994.994 0 01-.304-.763 1.034 1.034 0 01.304-.768 1.144 1.144 0 011.539 0 1.034 1.034 0 01.304.768.994.994 0 01-.304.763 1.056 1.056 0 01-.767.25l-.005.037zm-2.883 0a1.055 1.055 0 01-.767-.287 1.012 1.012 0 01-.31-.763 1.077 1.077 0 012.153 0 .996.996 0 01-.31.763c-.21.18-.484.27-.761.25l-.005.037zm-6.685 5.585h-2.626v2.565h-2.574v-7.314h2.574v2.732h2.626v-2.737h2.583v7.313h-2.583v-2.56zm-9.674-1.202a1.782 1.782 0 00-.294-1.139.996.996 0 00-.819-.36 1.195 1.195 0 00-.94.402c-.263.354-.39.79-.357 1.228v3.657h-2.584v-3.788c0-1.003-.373-1.499-1.113-1.499a1.22 1.22 0 00-.956.402c-.262.354-.386.79-.352 1.228v3.657h-2.563v-7.314h2.463v.768c.261-.292.587-.521.951-.669a3.378 3.378 0 011.229-.219c.479-.008.954.088 1.391.282.406.19.75.488.993.862.291-.37.67-.662 1.103-.851a3.594 3.594 0 011.454-.293 2.923 2.923 0 012.169.81 3.317 3.317 0 01.809 2.44v4.178h-2.584v-3.782zm.331-9.925a3.78 3.78 0 01-1.891.465 2.58 2.58 0 01-1.985-.758v3.265h-2.589V6.922a3.822 3.822 0 01.525-2.001 3.473 3.473 0 011.471-1.337 4.944 4.944 0 012.216-.47 4.554 4.554 0 012.101.46c.59.29 1.078.752 1.397 1.326.332.616.499 1.307.483 2.006a4.258 4.258 0 01-.483 1.975 3.185 3.185 0 01-1.245 1.337zm-1.26-4.576a1.546 1.546 0 00-2.238 0 1.862 1.862 0 00-.42 1.264c-.024.46.124.912.415 1.27a1.577 1.577 0 001.729.344c.192-.08.367-.197.514-.345.299-.35.453-.8.43-1.259a1.81 1.81 0 00-.43-1.274zm-9.978 3.082c.312.008.624-.042.919-.146a2.66 2.66 0 00.782-.486l1.35 1.405c-.7.79-1.751 1.186-3.151 1.186a5.066 5.066 0 01-2.274-.486 3.667 3.667 0 01-1.528-1.336 3.642 3.642 0 01-.034-3.89 3.665 3.665 0 011.504-1.361 4.681 4.681 0 014.054-.047 3.445 3.445 0 011.418 1.28 3.66 3.66 0 01.525 2.006l-5.251.997a1.667 1.667 0 001.691.878h-.005zm1.118-2.764a1.33 1.33 0 00-.525-.736 1.514 1.514 0 00-.909-.277 1.479 1.479 0 00-1.087.413c-.302.32-.473.741-.477 1.18l2.998-.58zm-3.618 10.97a3.21 3.21 0 011.381 1.312 3.99 3.99 0 01.483 2.006 4.227 4.227 0 01-.446 1.99 3.19 3.19 0 01-1.266 1.327 3.78 3.78 0 01-1.89.465 2.593 2.593 0 01-1.986-.768v3.265h-2.589v-6.269c-.012-.7.17-1.39.526-1.995a3.436 3.436 0 011.47-1.338 4.928 4.928 0 012.216-.47 4.53 4.53 0 012.106.476h-.005zm-2.227 1.568a1.404 1.404 0 00-1.118.48 2.119 2.119 0 000 2.529 1.539 1.539 0 001.121.477 1.56 1.56 0 001.121-.477 2.085 2.085 0 000-2.523 1.405 1.405 0 00-1.119-.476l-.005-.01zm-.646-10.14a1.755 1.755 0 01-.525 1.26 3.15 3.15 0 01-1.397.83 6.39 6.39 0 01-1.964.277 8.379 8.379 0 01-3.35-.633l.667-1.734a6.73 6.73 0 002.599.486 2.26 2.26 0 00.972-.172.55.55 0 00.362-.523.476.476 0 00-.215-.433 1.311 1.311 0 00-.667-.136h-1.576V6.096h1.36c.604 0 .909-.188.909-.553 0-.366-.404-.586-1.208-.586a6.734 6.734 0 00-2.342.486l-.615-1.687a8.322 8.322 0 013.151-.658 5.469 5.469 0 012.584.522 1.682 1.682 0 011.024 1.536c0 .33-.105.652-.299.92-.21.304-.493.55-.825.715.381.107.723.32.988.611.232.265.363.604.367.956zm-5.183 8.228v7.313H99.99v-.731a2.669 2.669 0 01-2.174.862 3.692 3.692 0 01-1.833-.465c-.55-.316-1-.777-1.302-1.332a4.363 4.363 0 010-3.991 3.336 3.336 0 011.302-1.311 3.692 3.692 0 011.833-.46 2.77 2.77 0 012.053.768v-.648l2.605-.005zm-2.978 2.377a1.576 1.576 0 00-1.72-.341c-.191.079-.365.195-.512.34-.307.35-.463.806-.435 1.27-.028.468.128.929.435 1.285a1.575 1.575 0 001.72.341c.192-.079.366-.195.512-.34.307-.357.464-.818.436-1.286a1.766 1.766 0 00-.457-1.264l.021-.005zm-2.82-9.19c-.275.3-.617.53-.998.675a3.167 3.167 0 01-1.213.23 3.112 3.112 0 01-2.279-.836 3.386 3.386 0 01-.85-2.529V3.244h2.588v3.657c-.034.423.075.846.31 1.201a1.124 1.124 0 00.914.382 1.293 1.293 0 00.998-.429c.29-.37.428-.834.388-1.3V3.243h2.584v7.313h-2.463l.021-.783zm-1.528-7.229a2.857 2.857 0 01-1.927-.548 2.165 2.165 0 01-.63-1.683h1.67c-.016.262.063.521.22.732a.815.815 0 00.651.235.887.887 0 00.678-.235c.163-.208.242-.469.22-.732h1.702a2.106 2.106 0 01-.63 1.683 2.942 2.942 0 01-1.954.548zM87.04 9.857a2.669 2.669 0 01-2.175.852 3.691 3.691 0 01-1.832-.465 3.378 3.378 0 01-1.303-1.363 4.005 4.005 0 01-.483-2.001c-.017-.694.15-1.38.483-1.99.3-.553.752-1.01 1.303-1.317a3.692 3.692 0 011.832-.439 2.749 2.749 0 012.054.758v-.648h2.584v7.313H87.04v-.7zm-.526-4.21a1.576 1.576 0 00-1.72-.341c-.191.079-.365.195-.511.341a1.786 1.786 0 00-.436 1.27c-.027.47.13.931.436 1.29a1.576 1.576 0 001.72.34c.191-.078.365-.194.511-.34.307-.359.463-.82.436-1.29a1.786 1.786 0 00-.425-1.296l-.01.026zm-8.612 4.942l-2.164-3.62h-1.223v3.62H71.84V1.113h2.684v3.656h1.292l2.274-3.656h2.83l-2.982 4.56 3.009 4.89-3.046.026zm-3.755 9.7c-.035.424.074.847.31 1.202a1.124 1.124 0 00.914.376 1.288 1.288 0 00.997-.423c.29-.371.429-.838.389-1.306v-3.547h2.589v7.313h-2.463v-.783a2.626 2.626 0 01-.982.674 3.25 3.25 0 01-1.213.23 3.136 3.136 0 01-2.28-.836 3.387 3.387 0 01-.845-2.513v-4.085h2.584v3.699zm18.501 3.657H90.08v-5.318h-2.478v5.282h-2.569v-7.314h7.615v7.35zM135.097 33.924v-.83h-.82l-.577.83h-.525l.64-.893a.89.89 0 01-.457-.293.824.824 0 01-.162-.522.802.802 0 01.309-.685c.25-.17.549-.252.851-.235h1.156v2.612l-.415.016zm0-2.205h-.709c-.457 0-.688.173-.688.523a.457.457 0 00.168.387c.156.099.341.143.525.125h.73l-.026-1.035zm-3.067 1.808a.923.923 0 01-.378.313 1.213 1.213 0 01-.525.11 1.163 1.163 0 01-.835-.287 1.139 1.139 0 01-.3-.852v-1.504h.473v1.452a.798.798 0 00.189.575.674.674 0 00.525.193.799.799 0 00.599-.225.907.907 0 00.215-.642v-1.353h.478v2.612h-.452l.011-.392zm-3.366-.7h-1.502v1.097h-.478v-2.612h.478v1.113h1.502v-1.118h.477v2.612h-.477v-1.092zm-3.356.679a1.044 1.044 0 01-.405.334c-.165.074-.344.111-.525.11a1.383 1.383 0 01-.688-.167 1.193 1.193 0 01-.472-.47 1.488 1.488 0 010-1.395 1.27 1.27 0 01.472-.47 1.44 1.44 0 01.688-.167c.181-.002.36.036.525.11a.945.945 0 01.394.313v-.397h.478v2.612h-.457l-.01-.413zm-.126-1.374a.822.822 0 00-.321-.324.995.995 0 00-.908 0 .858.858 0 00-.32.324 1.055 1.055 0 000 .967.901.901 0 00.32.323.952.952 0 00.908 0 .868.868 0 00.321-.323 1.122 1.122 0 000-.967zm-3.293-.413h-1.491v2.205h-.478v-2.612h2.442v2.612h-.473v-2.205zm-3.329.293l-.988 1.614h-.21l-.971-1.62v1.918h-.442v-2.612h.494l1.05 1.766 1.051-1.766h.446v2.612h-.43v-1.912zm-3.965 1.766a1.528 1.528 0 01-1.408 0 1.264 1.264 0 01-.667-1.165 1.264 1.264 0 01.667-1.16 1.524 1.524 0 011.408 0 1.296 1.296 0 01.667 1.16c.005.242-.057.48-.179.69-.111.2-.277.364-.478.475h-.01zm.068-1.646a.782.782 0 00-.315-.324.941.941 0 00-.457-.11.919.919 0 00-.452.11.826.826 0 00-.32.324 1.068 1.068 0 000 .967.858.858 0 00.772.438.886.886 0 00.457-.115.818.818 0 00.315-.323 1.068 1.068 0 000-.967zm-2.873 1.792l-.887-1.108h-.525v1.108h-.478v-2.612h.478v1.107h.556l.856-1.107h.525l-.997 1.259 1.05 1.358-.578-.005zm-4.611-.83h-.819l-.578.83h-.525l.641-.893a.89.89 0 01-.457-.293.831.831 0 01-.163-.522.815.815 0 01.31-.685c.25-.17.549-.252.851-.235h1.155v2.612h-.43l.015-.815zm0-1.375h-.709c-.456 0-.688.173-.688.523a.46.46 0 00.168.386.825.825 0 00.499.126h.73v-1.035zm-3.056 1.787a1.048 1.048 0 01-.404.334c-.166.073-.345.11-.526.11a1.373 1.373 0 01-.688-.167 1.2 1.2 0 01-.472-.47 1.488 1.488 0 010-1.395c.113-.196.276-.358.472-.47.212-.113.449-.17.688-.167.181-.003.361.034.526.11a.945.945 0 01.399.313v-.397h.478v2.612h-.457l-.016-.413zm-.142-1.374a.776.776 0 00-.315-.324.956.956 0 00-.457-.11.915.915 0 00-.451.11.822.822 0 00-.321.324 1.068 1.068 0 000 .967.865.865 0 00.772.438.901.901 0 00.457-.115.812.812 0 00.315-.323 1.068 1.068 0 000-.967zm-2.862 1.792l-.887-1.108h-.526v1.108h-.451v-2.612h.478v1.107h.556l.856-1.107h.525l-.997 1.259 1.05 1.358-.604-.005zm-4.075-.523a.939.939 0 00.467.115.907.907 0 00.41-.094.787.787 0 00.304-.282l.363.23c-.1.178-.25.324-.43.418-.2.096-.42.145-.642.141a1.477 1.477 0 01-.719-.172 1.231 1.231 0 01-.494-.476 1.311 1.311 0 01-.178-.69 1.29 1.29 0 01.672-1.159c.221-.117.469-.177.72-.172a1.36 1.36 0 01.64.146c.183.09.333.235.43.413l-.362.23a.812.812 0 00-.714-.371.997.997 0 00-.467.11.827.827 0 00-.32.323.973.973 0 00-.116.48.952.952 0 00.115.487.795.795 0 00.342.355l-.021-.032zm-3.114-.03c.172.101.371.152.572.145a.992.992 0 00.761-.313l.258.303c-.118.142-.27.251-.441.319a1.73 1.73 0 01-1.334-.063 1.215 1.215 0 01-.525-.475 1.332 1.332 0 01-.179-.695c-.003-.24.057-.475.173-.684.108-.201.273-.366.473-.476.206-.116.44-.176.677-.172.228-.001.452.054.652.162.194.104.356.26.467.449.12.204.181.437.179.674l-2.101.402c.07.19.208.349.389.444l-.021-.02zm1.286-1.046a.817.817 0 00-.814-.643.849.849 0 00-.446.116.764.764 0 00-.305.313 1.04 1.04 0 00-.11.48v.048l1.675-.314zm-3.298.523a2.015 2.015 0 01-.85.193 1.149 1.149 0 01-.762-.225.846.846 0 01-.268-.679v-.83h.478v.82a.488.488 0 00.173.407.733.733 0 00.478.141 1.92 1.92 0 00.751-.172v-1.196h.51v2.612h-.478l-.032-1.071zm-3.009.658a.923.923 0 01-.378.313 1.212 1.212 0 01-.525.11 1.164 1.164 0 01-.835-.287 1.131 1.131 0 01-.3-.852v-1.483h.478v1.452a.797.797 0 00.184.575.674.674 0 00.525.193.8.8 0 00.6-.225.88.88 0 00.214-.642v-1.353h.478v2.612H88.9l.01-.413zm-4.248 1.384c-.24 0-.48-.035-.71-.104a1.383 1.383 0 01-.524-.288l.225-.365c.135.112.29.197.457.25.18.061.368.091.557.09a.975.975 0 00.688-.215.897.897 0 00.22-.663v-.162a1.133 1.133 0 01-.415.303 1.51 1.51 0 01-1.218-.063 1.18 1.18 0 01-.483-.45 1.338 1.338 0 010-1.316c.115-.19.283-.345.483-.444.21-.11.445-.166.683-.162.19-.002.377.036.551.11.167.068.314.178.426.319v-.402h.451v2.262a1.336 1.336 0 01-.346 1.013 1.418 1.418 0 01-1.024.308l-.021-.02zm.646-2.977a.911.911 0 00-.652-.235.927.927 0 00-.656.235.793.793 0 00-.252.61.837.837 0 00.115.445.822.822 0 00.326.303 1.055 1.055 0 00.935 0 .838.838 0 00.441-.747.777.777 0 00-.236-.59l-.021-.021zm-3.151 1.593a.94.94 0 01-.384.313 1.197 1.197 0 01-.525.11 1.16 1.16 0 01-.83-.287 1.134 1.134 0 01-.304-.852v-1.483h.478v1.452a.823.823 0 00.183.575.695.695 0 00.526.193.8.8 0 00.598-.225.906.906 0 00.216-.642v-1.353h.477v2.612h-.451l.016-.413zm-3.267.256a1.438 1.438 0 01-1.213.063.987.987 0 01-.394-.309v1.343H76.8v-2.236a1.45 1.45 0 01.168-.7c.114-.2.28-.364.483-.475.22-.114.466-.171.714-.167.245-.005.487.053.704.167.2.11.365.274.473.475a1.56 1.56 0 010 1.39 1.162 1.162 0 01-.447.47l-.005-.021zm.037-1.64a.797.797 0 00-.315-.33.908.908 0 00-.462-.114.854.854 0 00-.636.25.922.922 0 00-.241.664 1.04 1.04 0 00.11.486c.075.15.194.273.341.355a.975.975 0 00.92 0 .848.848 0 00.314-.324 1.009 1.009 0 00-.026-.966l-.005-.021zm-3.608 1.567c-.276.156-.59.236-.909.23a1.855 1.855 0 01-.85-.199 1.714 1.714 0 01-.898-1.332h-.64v1.53h-.49v-3.452h.49v1.483h.645a1.697 1.697 0 01.914-1.327 1.903 1.903 0 011.743.037c.266.148.484.367.63.632a1.883 1.883 0 010 1.808 1.624 1.624 0 01-.63.632l-.005-.042zm.2-2.215a1.21 1.21 0 00-.457-.476 1.298 1.298 0 00-.652-.167 1.209 1.209 0 00-1.097.643 1.382 1.382 0 00-.163.679c-.005.236.05.47.163.68a1.21 1.21 0 001.097.642c.229.002.453-.056.652-.168a1.21 1.21 0 00.457-.475 1.385 1.385 0 00.005-1.316l-.005-.042z" fill="#fff"/></svg><svg fill="none" viewBox="0 0 220 128" id="logo_m" xmlns="http://www.w3.org/2000/svg"><path d="M160.696 63.749a63.58 63.58 0 01-16.104 42.181c-10.357 11.638-24.629 19.113-40.136 21.02a64.37 64.37 0 01-44.075-10.664c-12.894-8.778-22.12-21.94-25.946-37.009v48.221H0V0h34.435v48.22a63.762 63.762 0 0120.898-33.239A64.328 64.328 0 0191.826.171v34.482a29.672 29.672 0 00-17.823 9.995 29.384 29.384 0 00-7.063 19.101c0 7 2.503 13.77 7.063 19.101a29.672 29.672 0 0017.823 9.995c.386.077.775.134 1.167.171.689 0 1.397.153 2.104.19h1.512a29.73 29.73 0 0020.953-8.625 29.416 29.416 0 008.699-20.832v-.952h34.435v.952z" fill="#101F30"/><path d="M220 63.749v63.749h-34.435V63.749a29.412 29.412 0 00-8.347-20.996 29.728 29.728 0 00-20.827-8.975 29.741 29.741 0 00-21.107 8.302 29.425 29.425 0 00-9.023 20.718v.951a29.417 29.417 0 01-8.685 20.857 29.732 29.732 0 01-20.967 8.639 28.272 28.272 0 01-4.783-.4V63.75c0-16.907 6.752-33.122 18.771-45.077C122.615 6.716 138.916 0 155.913 0c16.997 0 33.298 6.716 45.316 18.672C213.248 30.627 220 46.842 220 63.749z" fill="#17AADF"/></svg><svg fill="none" viewBox="0 0 220 128" id="minLogo" xmlns="http://www.w3.org/2000/svg"><path d="M160.696 63.749a63.58 63.58 0 01-16.104 42.181c-10.357 11.638-24.629 19.113-40.136 21.02a64.37 64.37 0 01-44.075-10.664c-12.894-8.778-22.12-21.94-25.946-37.009v48.221H0V0h34.435v48.22a63.762 63.762 0 0120.898-33.239A64.328 64.328 0 0191.826.171v34.482a29.672 29.672 0 00-17.823 9.995 29.384 29.384 0 00-7.063 19.101c0 7 2.503 13.77 7.063 19.101a29.672 29.672 0 0017.823 9.995c.386.077.775.134 1.167.171.689 0 1.397.153 2.104.19h1.512a29.73 29.73 0 0020.953-8.625 29.416 29.416 0 008.699-20.832v-.952h34.435v.952z" fill="#101F30"/><path d="M220 63.749v63.749h-34.435V63.749a29.412 29.412 0 00-8.347-20.996 29.728 29.728 0 00-20.827-8.975 29.741 29.741 0 00-21.107 8.302 29.425 29.425 0 00-9.023 20.718v.951a29.417 29.417 0 01-8.685 20.857 29.732 29.732 0 01-20.967 8.639 28.272 28.272 0 01-4.783-.4V63.75c0-16.907 6.752-33.122 18.771-45.077C122.615 6.716 138.916 0 155.913 0c16.997 0 33.298 6.716 45.316 18.672C213.248 30.627 220 46.842 220 63.749z" fill="#17AADF"/></svg><svg fill="#17AADF" viewBox="0 0 54 50" id="w_icon" xmlns="http://www.w3.org/2000/svg"><path fill-rule="evenodd" clip-rule="evenodd" d="M43.484 12.962a1.59 1.59 0 001.702-.442c1.713-1.922 2.171-4.589 1.225-7.132-.903-2.425-2.985-4.407-5.572-5.3a1.586 1.586 0 00-1.702.442c-1.713 1.921-2.171 4.587-1.224 7.131.902 2.425 2.985 4.407 5.571 5.3zM33.322 23.193h7.616c-.668-5.894-5.033-10.69-10.725-12.023.585.767 1.151 1.83 1.654 3.293.827 2.402 1.332 5.457 1.455 8.73zm-8.196-7.709c.85-2.469 1.707-3.003 1.874-3.003.167 0 1.025.534 1.874 3.003.72 2.092 1.164 4.787 1.282 7.71h-6.312c.118-2.923.562-5.617 1.282-7.71zM27 37.058c-.167 0-1.025-.535-1.874-3.004-.72-2.092-1.164-4.787-1.282-7.71h6.312c-.118 2.923-.562 5.618-1.282 7.71-.85 2.469-1.707 3.004-1.874 3.004zm6.322-10.713h7.616c-.668 5.894-5.033 10.69-10.725 12.023.585-.767 1.151-1.83 1.654-3.293.827-2.402 1.332-5.457 1.455-8.73zm-12.644 0h-7.616c.668 5.894 5.033 10.69 10.725 12.023-.585-.767-1.151-1.83-1.654-3.293-.827-2.402-1.332-5.457-1.455-8.73zm0-3.152h-7.616c.668-5.894 5.033-10.69 10.725-12.023-.585.767-1.151 1.83-1.654 3.293-.827 2.402-1.332 5.457-1.455 8.73zm25.353 2.172c-1.791-2.062-2.6-4.816-2.163-7.365.457-2.674 2.192-4.755 4.64-5.566a1.585 1.585 0 011.696.464c1.792 2.062 2.6 4.815 2.164 7.365-.457 2.674-2.192 4.754-4.64 5.566a1.59 1.59 0 01-1.697-.464zm7.8 3.098a1.579 1.579 0 00-1.235-1.246c-2.528-.517-5.076.421-6.815 2.51-1.657 1.99-2.34 4.777-1.824 7.455a1.58 1.58 0 001.236 1.246c.458.094.916.14 1.37.14 2.054 0 4.02-.94 5.444-2.65 1.658-1.99 2.34-4.777 1.824-7.455zM40.803 40.595c2.554-.943 5.23-.487 7.16 1.22.48.423.655 1.092.445 1.694-.898 2.576-2.888 4.65-5.323 5.549a7.625 7.625 0 01-2.639.482 6.769 6.769 0 01-4.522-1.702 1.572 1.572 0 01-.444-1.694c.897-2.576 2.887-4.65 5.323-5.55zM9.997 13.049c.174 0 .349-.028.519-.087 2.586-.894 4.669-2.876 5.571-5.301.947-2.544.489-5.21-1.224-7.131A1.587 1.587 0 0013.16.087c-2.586.894-4.67 2.876-5.572 5.301-.946 2.544-.488 5.21 1.225 7.132.306.342.74.529 1.183.529zm-3.225 12.86c-.167 0-.335-.026-.5-.08-2.448-.811-4.183-2.892-4.64-5.566-.436-2.55.373-5.303 2.164-7.365a1.587 1.587 0 011.696-.464c2.448.812 4.183 2.892 4.64 5.566.437 2.55-.372 5.302-2.163 7.365a1.587 1.587 0 01-1.197.545zm2.035 12.52a1.578 1.578 0 001.236-1.247c.515-2.678-.167-5.465-1.824-7.456-1.74-2.088-4.287-3.026-6.815-2.51A1.578 1.578 0 00.17 28.464c-.516 2.678.166 5.465 1.824 7.456 1.424 1.71 3.39 2.649 5.444 2.649.454 0 .912-.046 1.37-.14zm-2.77 3.385c1.93-1.706 4.606-2.162 7.16-1.219 2.436.898 4.426 2.973 5.323 5.549a1.57 1.57 0 01-.444 1.694 6.77 6.77 0 01-4.522 1.702c-.871 0-1.763-.159-2.64-.483-2.434-.898-4.424-2.972-5.322-5.548a1.571 1.571 0 01.444-1.695z"/></svg></svg>